<?xml version="1.0" encoding="utf-8"?>
<!DOCTYPE svg PUBLIC "-//W3C//DTD SVG 1.1//EN" "http://www.w3.org/Graphics/SVG/1.1/DTD/svg11.dtd">
<svg version="1.1" id="Layer_1" xmlns="http://www.w3.org/2000/svg" xmlns:xlink="http://www.w3.org/1999/xlink" x="0px" y="0px"
	 viewBox="0 0 1720.66 1720.2749" enable-background="new 0 0 1720.66 1720.2749" xml:space="preserve">
<g>
	<g enable-background="new    ">
		<g>
			<g>
				<g>
					<path fill="#333333" d="M1222.1819,157.088c3.5044,0.7444,6.8516,1.5039,10.0427,2.2777
						c-14.9086-14.5358-15.4905-15.1032-37.4667-26.2436l-20.2737-8.9977l-27.1354-10.9958
						c-6.7378-2.4834-15.201-4.8301-25.4454-7.0062C1156.7928,119.9408,1190.3156,137.0209,1222.1819,157.088"/>
					<path fill="#0000FF" d="M1502.6243,512.9249c-4.3312-21.4671-10.2424-50.1032-16.1692-71.1857
						c-5.0652-1.2282-10.3781-2.4337-15.9407-3.6153C1482.3682,462.1781,1493.0989,487.1378,1502.6243,512.9249"/>
					<path fill="#8C6239" d="M1380.5199,297.7866c48.7964,34.1492,73.2893,51.29,115.0144,93.0305
						c-7.2814-25.1039-7.5656-26.0839-22.2675-45.234c-24.1974-26.6477-57.7615-61.0219-83.8794-85.7902l-2.0626-1.8101
						c-17.8074-14.4148-42.1804-32.8729-60.9222-46.0501c13.8284,16.8676,20.7693,25.3341,19.0675,46.2324
						C1357.5885,270.8431,1369.2809,284.0588,1380.5199,297.7866"/>
					<path fill="#736357" d="M1283.0837,200.6896c-14.9108-12.8124-34.9453-29.781-50.8591-41.3239
						c-3.1912-0.7738-6.5383-1.5333-10.0427-2.2777C1243.2332,170.3446,1263.5616,184.9048,1283.0837,200.6896"/>
					<path fill="#F7931E" d="M1345.4701,258.1651c-0.7764-18.3714-1.166-27.5927-19.0675-46.2324
						c-20.9608-15.0414-49.3845-34.4845-71.411-47.917c-18.0037-9.3965-41.849-22.2664-60.2336-30.8936
						c24.1237,12.8555,25.5677,13.6251,37.4667,26.2436c15.5896,11.9771,36.3209,28.0903,50.8591,41.3239
						C1304.9279,218.3519,1325.7625,237.5474,1345.4701,258.1651"/>
					<path fill="#666666" d="M1470.5144,438.1238c5.5626,1.1816,10.8755,2.3871,15.9407,3.6153
						c-16.1304-22.2136-37.7485-51.7759-54.9213-73.1938C1445.6021,390.7746,1458.6233,413.9937,1470.5144,438.1238"/>
					<path fill="#1A1A1A" d="M1495.5696,390.8494c48.7136,69.3742,68.8768,98.0891,110.0894,195.4608
						c-1.5425-11.9393-4.7706-27.7797-8.5719-39.2023c-13.6486-28.9073-32.609-67.1239-48.1631-95.0521
						c-44.0015-67.9674-44.8422-69.266-72.2623-102.4106l-3.3948-4.0622c16.3268,23.1941,17.6604,25.0887,22.2675,45.234
						L1495.5696,390.8494"/>
					<path fill="#8C6239" d="M1659.5306,818.694l-0.0005-0.0089c-8.0421-87.1196-8.0421-87.1196-17.481-130.4984
						c-6.8514-26.2517-15.9745-61.2893-24.3083-87.1087c-1.7288-5.0451-5.7356-9.9802-12.0819-14.7678
						c16.9259,74.2746,23.259,102.0661,19.6714,200.2562C1647.0342,798.0239,1656.0176,802.7663,1659.5306,818.694"/>
					<path fill="#C1272D" d="M1617.7408,601.0781l-13.132-35.6415l-7.5219-18.3286c3.5685,11.4975,7.2867,27.2325,8.5719,39.2023
						C1612.0052,591.0979,1616.0121,596.033,1617.7408,601.0781"/>
					<path fill="#C7B299" d="M1431.5338,368.5453c-15.7338-24.861-32.7772-48.4839-51.0139-70.7587
						c40.9469,28.6559,73.2893,51.29,115.0144,93.0305l0.0353,0.0323c48.7136,69.3742,68.8768,98.0891,110.0894,195.4608
						c-26.96-44.8187-50.2434-83.5254-119.2039-144.5711C1470.3247,419.5256,1447.4854,390.8876,1431.5338,368.5453"/>
					<path fill="#00FFFF" d="M1505.2915,1110.2047c5.5627,1.1815,10.8756,2.3871,15.9409,3.6154
						c2.9333-25.7666,6.6854-60.1718,8.0228-86.0702C1522.5154,1055.7552,1514.5032,1083.2733,1505.2915,1110.2047"/>
					<path fill="#666666" d="M1502.7247,513.1971c-4.3551-21.5503-10.3099-50.2951-16.2697-71.4579
						c5.3741,21.23,12.3815,49.616,16.1692,71.1857C1502.6577,513.0156,1502.6913,513.1063,1502.7247,513.1971"/>
					<path fill="#666666" d="M1529.2552,1027.7498c-1.8844,25.8645-4.5308,60.3735-8.0228,86.0703
						c2.9639-25.8634,6.7434-60.3993,8.1012-86.3965C1529.3075,1027.5323,1529.2814,1027.6411,1529.2552,1027.7498"/>
					<path fill="#998675" d="M1552.9613,870.7162c34.6591-32.5387,52.0558-48.8712,72.369-84.1497
						c-17.2096-7.6756-41.033-14.86-71.7483-21.3846C1555.4182,800.6799,1555.1711,835.9125,1552.9613,870.7162"/>
					<path fill="#808080" d="M1542.1237,661.2698c32.4216,39.23,58.0303,70.2162,83.2067,125.2967
						c1.7723-79.8644,2.4354-109.7474-19.6714-200.2562c-26.96-44.8187-50.2434-83.5254-119.2039-144.5711
						c5.4105,21.3099,12.4547,49.8055,16.2697,71.4579C1519.9891,559.9876,1533.286,609.5003,1542.1237,661.2698"/>
					<path fill="#006837" d="M1553.5815,765.1732c0.0001,0.0029,0.0002,0.0058,0.0005,0.0087
						c30.7153,6.5245,54.5387,13.709,71.7483,21.3846c-24.839-48.8145-37.3066-73.3164-83.2067-125.2967
						C1547.88,694.9896,1551.7445,729.6669,1553.5815,765.1732"/>
					<path fill="#1B1464" d="M1195.6826,1532.4093c19.7321,4.1914,32.8557,9.0156,39.769,14.2311
						c26.1854-24.0647,50.9187-46.7948,63.9257-89.5039c-3.1912-0.7738-6.5385-1.5333-10.0431-2.2777
						C1259.972,1483.3209,1228.6689,1509.2876,1195.6826,1532.4093"/>
					<path fill="#D4145A" d="M1400.4829,1321.6821c2.0027,35.3578,3.0078,53.1052-11.9674,91.0485
						c38.1361-21.7953,74.1571-42.3818,108.4545-74.3795c21.106-39.7559,39.3337-74.0902,40.5878-135.1316
						c-29.5513,21.7662-52.8926,38.9585-106.5876,69.8615C1421.2992,1289.6738,1411.1287,1305.8851,1400.4829,1321.6821"/>
					<path fill="#ED1E79" d="M1289.3342,1454.8588c3.5046,0.7444,6.8519,1.5039,10.0431,2.2777
						c14.1072-18.2001,32.8031-42.6072,45.5027-61.8159C1327.2603,1416.1874,1308.7203,1436.0669,1289.3342,1454.8588"/>
					<path fill="#1B1464" d="M1344.88,1395.3206c-13.1858,18.8783-30.9353,43.9821-45.5027,61.8159
						c-11.0417,28.4635-20.5778,53.0454-63.9257,89.5039c63.7328-43.7733,90.1125-61.8916,153.0638-133.9098
						c11.199-34.1188,16.8201-51.2444,11.9674-91.0485C1383.1709,1347.371,1364.6019,1371.9641,1344.88,1395.3206"/>
					<path fill="#ED1C24" d="M1473.9972,1189.4386c14.4856-22.4857,33.7168-52.5385,47.2352-75.6185
						c-5.0653-1.2283-10.3782-2.4338-15.9409-3.6154C1496.0442,1137.2406,1485.588,1163.6853,1473.9972,1189.4386"/>
					<path fill="#534741" d="M1581.8035,1206.5692l0.1078-0.224c-36.6348,68.4257-37.3347,69.7329-84.9413,132.0059
						C1539.7496,1282.0601,1551.2474,1266.9308,1581.8035,1206.5692"/>
					<path fill="#FF7BAC" d="M1496.97,1338.3511c48.299-63.562,49.2217-64.7762,84.9413-132.0059l9.0426-19.4563l15.1992-36.2588
						c16.6718-50.7737,23.5724-71.7896,21.6697-135.8431c-26.6019,74.1052-36.5557,101.8332-90.2184,188.3868l-0.0466,0.0457
						C1534.3292,1244.2158,1531.541,1279.6215,1496.97,1338.3511"/>
					<path fill="#999999" d="M1529.3336,1027.4235c-1.901,25.9633-4.5825,60.6028-8.1012,86.3966
						c40.88-30.3389,76.1852-56.5403,106.5903-99.033c8.621-86.4111,11.8466-118.7438-2.4924-228.2206
						c-17.2278,26.5159-30.8352,47.4597-72.369,84.1497C1549.568,924.1611,1541.5465,976.5944,1529.3336,1027.4235"/>
					<path fill="#00FF00" d="M1430.9701,1273.0809c40.1973-23.8165,69.2405-41.0244,106.5876-69.8615l0.0466-0.0457
						c41.6633-68.9022,58.9083-97.4218,90.2184-188.3868c-23.7399,29.9453-42.4911,53.5978-106.5903,99.033
						c-13.8555,22.8794-32.4349,53.3387-47.2352,75.6185C1461.0387,1218.2303,1446.662,1246.158,1430.9701,1273.0809"/>
					<path fill="#CCCCCC" d="M1606.1531,1150.6301c8.5547-24.7279,20.0334-57.7037,27.2178-82.864l7.0457-28.2932
						c1.9639-8.5172-2.1425-16.8014-12.5938-24.6859C1628.1754,1066.1512,1628.3214,1087.4116,1606.1531,1150.6301"/>
					<path fill="#00FFFF" d="M1627.8228,1014.787c8.621-86.4111,11.8466-118.7438-2.4924-228.2206
						c21.7039,11.4575,30.6873,16.1998,34.2003,32.1276c0.4165,36.8026-0.5798,85.9197-2.9661,122.6472
						c-4.1826,29.5408-10.1265,68.9102-16.1481,98.1317C1642.3804,1030.9557,1638.274,1022.6715,1627.8228,1014.787"/>
					<path fill="#754C24" d="M1347.6573,1492.6313c-2.3735,2.7621-5.7319,6.3116-8.5544,8.613l23.5972-18.3394
						c58.6532-51.0554,60.9427-53.0485,91.6306-86.717l38.0748-45.4193c3.2965-4.1981,4.8345-8.3473,4.5645-12.4176
						c-21.6891,27.6287-51.3954,63.975-75.8228,89.2151C1400.6691,1448.7256,1368.7213,1472.0548,1347.6573,1492.6313"/>
					<path fill="#009245" d="M1121.9034,106.1223c10.2444,2.1761,18.7076,4.5228,25.4454,7.0062
						c-61.1527-21.5216-62.321-21.9327-120.4038-35.6963C1059.5223,84.3523,1091.2407,93.9777,1121.9034,106.1223"/>
					<path fill="#1B1464" d="M1387.3248,257.9828c-61.2762-49.7072-62.4469-50.6569-98.8896-73.8983l-33.4436-20.0688
						c21.8579,13.7051,50.6472,32.6048,71.411,47.917C1345.1171,225.1486,1369.5503,243.5274,1387.3248,257.9828"/>
					<path fill="#998675" d="M819.4337,142.9181c18.0377-39.1371,22.3204-49.3335,26.6949-68.4111
						c-30.6778,1.1296-62.0114,3.0831-92.5995,5.847c-32.0699,21.8048-45.4636,31.5609-90.7065,75.0844
						C713.8092,149.8826,766.8117,145.7015,819.4337,142.9181"/>
					<path fill="#754C24" d="M1202.1775,258.0894c-56.9227-26.819-98.0502-46.1962-186.0005-80.8279l-0.0286-0.2038
						C1069.8038,198.6038,1125.2861,220.8834,1202.1775,258.0894"/>
					<path fill="#CCCCCC" d="M888.9163,255.6914c17.961-59.3728,22.2755-75.9223,27.1613-116.3286
						c-29.6686-29.7552-43.2096-43.3356-69.949-64.8559c-4.9149,19.2318-7.1994,26.6352-26.6949,68.4111
						C839.3214,176.4858,844.0467,184.4615,888.9163,255.6914"/>
					<path fill="#2E3192" d="M1201.2827,524.9645c50.6846-35.5061,94.4573-66.1703,138.1864-105.1282
						c-48.2642-64.5291-68.2413-91.2386-137.2916-161.7469c-27.5967,24.0945-47.5358,41.5031-116.052,87.1286
						C1138.7542,420.2801,1155.6891,445.8631,1201.2827,524.9645"/>
					<path fill="#ED1E79" d="M1075.8872,98.9917l-0.0778-0.097c-8.9912-8.5311-13.5043-12.8132-37.7046-18.9785
						c-3.7085-0.8633-7.4285-1.6914-11.1597-2.484c-37.049-7.1785-37.7568-7.3157-59.0195-10.2402
						c-26.3142-3.2163-26.3142-3.2163-39.8495-4.3623l-0.6495-0.0543C981.4218,70.0194,1008.5241,73.6554,1075.8872,98.9917"/>
					<path fill="#B3B3B3" d="M1348.7817,274.6772c-11.2819-15.6986-26.4873-36.5683-39.0682-51.2464
						c-27.4537-24.7419-56.7183-46.9388-87.5316-66.3428c-22.8201-4.8475-50.7352-8.7216-82.452-11.6349l-0.1681-0.0629
						c31.1034,36.9467,42.7415,50.7711,62.6157,112.6992C1258.7969,261.6773,1308.7345,267.1962,1348.7817,274.6772"/>
					<path fill="#D9E021" d="M1411.277,338.2409c-30.0428-42.5846-64.1189-81.0644-101.5635-114.8101
						c12.1494,15.0373,28.2488,35.2256,39.0682,51.2464C1367.8113,293.4659,1393.1082,318.6186,1411.277,338.2409"/>
					<path fill="#B3B3B3" d="M1038.1832,79.9345c-0.0261-0.0061-0.0522-0.0122-0.0784-0.0183
						c19.8464,5.9538,29.8081,8.9422,37.7046,18.9785C1067.1749,90.6882,1061.9631,85.7348,1038.1832,79.9345"/>
					<path fill="#FFFF00" d="M1200.2793,143.9165c-50.5657-29.0039-104.958-50.6724-162.0961-63.982
						c19.8143,5.9499,29.7599,8.9364,37.6262,18.9602l0.0778,0.097C1116.6833,111.9029,1148.9067,122.1009,1200.2793,143.9165"/>
					<path fill="#736357" d="M1202.1775,258.0894c-17.0004-49.6513-23.3613-68.2295-62.6157-112.6992
						c-49.4078-18.3768-88.433-32.8918-158.6706-52.4618c20.0067,25.2414,27.4926,34.686,35.2572,84.1293
						C1069.8038,198.6038,1125.2861,220.8834,1202.1775,258.0894"/>
					<path fill="#603813" d="M916.0776,139.3629c29.014-17.6176,51.9311-31.533,64.8136-46.4345
						c-45.6263-20.1367-64.5116-28.4715-110.2288-32.7928c0.2629,0.3409,0.6134,0.7955,0.8763,1.1365
						c-3.3055,2.4978-5.9165,4.4708-25.41,13.2349C869.084,93.3436,878.9142,101.7713,916.0776,139.3629"/>
					<path fill="#29ABE2" d="M1016.177,177.2616l-0.0286-0.2038c-7.1349-39.5635-9.8046-54.3671-35.2572-84.1293
						c-11.6516,11.6029-20.0699,19.9861-64.8136,46.4345c-5.0052,36.8559-6.878,50.6463-27.1613,116.3286
						C936.8501,227.6908,978.2472,203.5086,1016.177,177.2616"/>
					<path fill="#999999" d="M1139.5618,145.3902l0.1681,0.0629c31.7168,2.9133,59.632,6.7875,82.452,11.6349
						c-7.217-4.5448-14.519-8.9363-21.9026-13.1715c-37.4747-15.2507-69.839-28.4217-124.3921-44.9248
						c-27.619-3.1063-59.8821-5.1217-94.996-6.0633C1044.5643,111.2959,1076.4213,121.4525,1139.5618,145.3902"/>
					<polyline fill="#39B54A" points="869.6499,60.0642 870.6624,60.1356 867.685,60.0452 869.6499,60.0642 					"/>
					<path fill="#C1272D" d="M980.8912,92.9284c-45.6263-20.1367-64.5116-28.4715-110.2288-32.7928
						c6.7092,0.0501,13.2307,0.1877,19.4985,0.4135l8.1017,0.3356c8.754,0.4868,20.4203,1.2445,29.164,1.8908
						c53.9952,7.244,81.0975,10.88,148.4606,36.2163C1048.2682,95.8854,1016.0051,93.8701,980.8912,92.9284"/>
					<path fill="#F15A24" d="M890.1609,60.5491c-4.8361-0.1398-11.2842-0.3336-16.1215-0.4251l-4.3895-0.0598l1.0125,0.0714
						C877.3715,60.1857,883.893,60.3233,890.1609,60.5491"/>
					<path fill="#603813" d="M753.5291,80.3539c30.5881-2.7638,61.9217-4.7173,92.5995-5.847
						c-17.8746-4.318-42.3546-10.2318-52.4758-11.5148c-14.7867,1.1781-29.3619,2.7149-43.1567,4.6049
						c-0.3895,0.0534-0.7774,0.1069-1.1639,0.1606l-3.056,0.4357c-1.5291,0.4699-3.5677,1.0965-5.0967,1.5665
						c-0.1941,0.7295-0.4529,1.7022-0.647,2.4317C741.38,72.9433,748.9454,79.5599,753.5291,80.3539"/>
					<polyline fill="#ED1E79" points="870.6624,60.1356 867.685,60.0452 863.856,60.0218 870.6624,60.1356 					"/>
					<path fill="#006837" d="M793.6528,62.9921l7.6713-0.7856l-5.6446,0.4371c-13.4318,1.1746-13.6884,1.197-20.64,1.9413
						c-15.038,1.7209-15.625,1.7881-23.6409,2.8862l-2.0664,0.2864c0.3865-0.0537,0.7744-0.1072,1.1639-0.1606
						C764.2908,65.707,778.866,64.1702,793.6528,62.9921"/>
					<path fill="#39B54A" d="M846.1286,74.507c19.0112-8.7479,20.0605-9.4576,25.1031-12.8677
						c-0.0251-0.419-0.0587-0.9776-0.0839-1.3966c-0.1457-0.0321-0.3399-0.0749-0.4855-0.107l-6.8063-0.1138
						c-3.2619,0.0087-7.6111,0.0015-10.8729,0.0321c-12.9446,0.2037-12.9446,0.2037-19.3776,0.4193
						c-12.5216,0.4939-12.5216,0.4939-18.7759,0.8499c-4.0524,0.2549-9.4556,0.5944-13.5056,0.8835l-7.6713,0.7856
						c4.2786,0.6961,17.2989,2.8143,48.6293,10.5635C843.436,73.841,844.9452,74.619,846.1286,74.507"/>
					<path fill="#C7B299" d="M531.4305,134.3933c63.2534-28.8595,67.04-30.5871,108.9114-43.483
						c-28.2825,8.4165-29.3865,8.7451-44.0913,13.8751l-34.0877,12.8165C540.144,127.9113,539.2844,128.3137,531.4305,134.3933"/>
					<path fill="#FF931E" d="M379.5733,311.6693c51.9002-34.0304,92.8941-60.9096,178.4265-105.1333
						c12.797-40.6138,17.5853-55.8103,53.7619-89.6871c-43.919,18.0263-89.3333,36.6663-155.163,73.0137
						C419.0157,231.4693,404.9532,247.0374,379.5733,311.6693"/>
					<path fill="#4D4D4D" d="M662.8226,155.4383c37.377-35.4435,52.8478-50.1141,90.7065-75.0844
						c-4.0112-2.0633-9.3196-5.0135-12.8146-7.8653c0.0591-0.7568,0.1379-1.7658,0.197-2.5226
						c1.5969-0.5683,3.693-1.4921,5.3646-1.7729l-1.8528,0.271c-47.5507,10.2402-67.2325,14.4787-132.6616,48.3846
						C617.8593,127.1605,621.8875,133.9728,662.8226,155.4383"/>
					<path fill="#FF1D25" d="M611.7617,116.8488c52.8736-26.3913,74.7587-37.3149,132.6616-48.3846
						c-22.39,3.5977-56.2261,9.0347-104.0814,22.4461c-63.4599,21.7364-67.2589,23.0376-108.9114,43.483
						C552.3192,128.2595,579.2583,122.313,611.7617,116.8488"/>
					<path fill="#736357" d="M531.4305,134.3933c17.3718-11.2588,17.3718-11.2588,30.6656-16.7645l0.0667-0.0269
						C539.7133,128.1129,539.2844,128.3137,531.4305,134.3933"/>
					<path fill="#29ABE2" d="M830.5136,1568.4385c30.5897-2.7639,61.925-4.7175,92.6044-5.8473
						c-7.7406-40.4583-10.6369-55.5966-36.5425-121.9027c-52.6234,2.7834-105.6273,6.9647-156.6152,12.5205
						C764.9131,1493.5654,775.462,1505.7451,830.5136,1568.4385"/>
					<path fill="#D9E021" d="M874.1293,1618.452c6.4301-14.1367,11.9834-26.3456,48.9887-55.8608
						c-30.6794,1.1298-62.0147,3.0834-92.6044,5.8473c-12.3301,25.0895-15.7055,39.002-3.1103,55.118
						c1.1771-0.1682,2.3683-0.335,3.5739-0.5001C844.7705,1621.1666,859.3441,1619.63,874.1293,1618.452"/>
					<path fill="#7AC943" d="M901.3256,1649.9833l0.4266-0.7493c-0.5426,0.02-1.0969,0.0546-1.6379,0.1035L901.3256,1649.9833
						C901.3256,1649.9833,901.3256,1649.9833,901.3256,1649.9833"/>
					<path fill="#662D91" d="M901.7523,1649.234c6.7324-7.5042,12.5468-13.9851,49.3783-33.6382
						c0.3052-14.0634,0.5688-26.2089-28.0126-53.0046c-22.8797,19.2595-42.6393,35.8927-48.9887,55.8608
						C890.4995,1629.0723,905.9619,1639.1036,901.7523,1649.234"/>
					<path fill="#FF00FF" d="M900.1144,1649.3375c0.541-0.049,1.0953-0.0835,1.6379-0.1035
						c0.5144-7.3733,0.9586-13.7412-27.623-30.782c-14.7852,1.178-29.3588,2.7146-43.1521,4.6044
						c-1.2055,0.1652-2.3968,0.3319-3.5739,0.5001c25.9493,7.9563,55.3608,16.9742,71.0494,24.9375
						C898.9512,1648.7471,899.5654,1649.2321,900.1144,1649.3375"/>
					<polyline fill="#FBB03B" points="901.3256,1649.9833 901.7523,1649.234 901.3256,1649.9833 					"/>
					<path fill="#0000FF" d="M905.3357,1649.382c23.4257-4.4457,54.6543-10.5066,77.8242-16.135
						c46.0222-12.5835,90.3745-30.1857,132.621-52.2148c18.478-19.7821,27.7529-29.7114,33.8872-55.7532
						c-64.7354,43.6888-88.4849,59.0782-157.0655,91.9741C974.1911,1629.4655,956.8007,1641.0006,905.3357,1649.382"/>
					<path fill="#D4145A" d="M901.3256,1649.9833l4.0101-0.6013c-0.312-0.0582-0.7012-0.1013-1.1424-0.1293L901.3256,1649.9833"/>
					<path fill="#D4145A" d="M904.1933,1649.2527c0.4412,0.028,0.8304,0.071,1.1424,0.1293
						c31.7543-6.2622,61.7476-12.1772,87.2669-32.1289c-12.3928-0.9951-26.4626-1.5452-41.472-1.6572
						C945.3942,1628.2969,940.4401,1639.2659,904.1933,1649.2527"/>
					<path fill="#ED1E79" d="M901.3256,1649.9833L901.3256,1649.9833c32.1536-15.9501,33.4088-16.5726,49.8049-34.3875
						c-22.8537,12.6376-42.5908,23.5519-49.3783,33.6382L901.3256,1649.9833"/>
					<path fill="#8C6239" d="M901.3256,1649.9833c32.1536-15.9501,33.4088-16.5726,49.8049-34.3875
						c-2.8587,6.3296-7.7139,14.8608-13.3581,18.9081c-9.0753,6.5076-18.1761,10.5049-33.5792,14.7488L901.3256,1649.9833"/>
					<path fill="#2E3192" d="M1115.7809,1581.0321c0.0247-0.0128,0.0494-0.0258,0.0741-0.0386
						c18.4478-19.7736,27.7074-29.6987,33.8131-55.7146C1142.0289,1548.756,1138.5424,1559.4709,1115.7809,1581.0321"/>
					<path fill="#009245" d="M923.9381,1646.4691l-18.6024,2.9128c23.4257-4.4457,54.6543-10.5066,77.8242-16.135
						C963.7067,1638.5659,943.9551,1642.9882,923.9381,1646.4691"/>
					<path fill="#C69C6D" d="M901.3256,1649.9833c7.5736-1.0376,15.1117-2.2098,22.6125-3.5142l-18.6024,2.9128L901.3256,1649.9833"
						/>
					<path fill="#808080" d="M1206.7032,1443.3175l0.1768-0.094c37.5592,3.8939,50.9436,5.422,82.4543,11.6353
						c28.3857-27.5157,54.9575-57.3636,79.4825-89.2279c10.3136-21.0148,23.926-49.1439,32.734-70.833
						c-40.0465-7.4808-89.9834-12.9998-146.6019-16.5875C1244.0349,1346.9677,1239.9512,1372.6947,1206.7032,1443.3175"/>
					<path fill="#8CC63F" d="M1368.8169,1365.6309c33.4492-43.4591,63.0909-90.6692,88.3345-140.8286
						c-16.4377,21.189-38.4323,49.394-55.6005,69.9956C1392.2277,1316.2705,1379.6385,1344.873,1368.8169,1365.6309"/>
					<path fill="#FCEE21" d="M1115.855,1580.9935c54.9656-28.6699,106.3655-64.834,153.2385-107.1888
						c-48.8568,21.3137-50.764,22.1458-119.4254,51.4742C1142.2833,1548.0291,1138.5765,1559.4482,1115.855,1580.9935"/>
					<path fill="#ED1E79" d="M1531.7203,897.3977l20.5789-17.0512c2.8088-37.9322,3.2887-76.3944,1.2823-115.1733
						c-2.006-38.7731-6.4298-76.5578-13.0947-113.1866l-22.6904-23.7642c-32.7053,32.4578-56.3354,55.9091-133.5156,114.4327
						C1434.8431,787.5196,1482.6013,829.8959,1531.7203,897.3977"/>
					<path fill="#808080" d="M1339.4691,419.8363c-49.6599-66.3953-68.2413-91.2386-137.2916-161.7469
						c54.4801,56.3494,77.0302,79.6732,137.4624,161.5665L1339.4691,419.8363"/>
					<path fill="#808080" d="M1540.4868,651.9865c-0.0038-0.0204-0.0074-0.0409-0.0111-0.0613l-22.6489-23.7551l-0.0304,0.0522
						L1540.4868,651.9865"/>
					<path fill="#662D91" d="M1540.4757,651.9252c-6.4025-35.1714-14.8711-69.2771-25.2495-102.1686
						c1.2734,23.5025,2.8004,54.8774,2.6006,78.4135L1540.4757,651.9252"/>
					<path fill="#9E005D" d="M1517.7964,628.2222l0.0304-0.0521c-0.2946-23.5352-0.804-54.9452-2.6006-78.4135
						c-9.405-29.8068-20.3784-58.6164-32.8036-86.3187c-16.5934,22.3293-29.6998,39.9663-68.6522,75.0891
						c-4.2386,73.6575-5.8247,101.2181-29.4896,204.128C1486.3995,663.772,1511.6711,636.3505,1517.7964,628.2222"/>
					<path fill="#FBB03B" d="M1413.7704,538.527c28.394-26.6708,48.9093-45.9409,68.6522-75.0891
						c-3.8324-8.5445-7.8029-16.9836-11.9081-25.3141c-36.222-7.6943-80.5311-13.8437-130.8746-18.4679l-0.1708,0.1804
						c-34.3058,29.3286-59.0923,50.5191-138.1864,105.1282C1279.8257,527.0709,1351.9919,531.5788,1413.7704,538.527"/>
					<path fill="#B3B3B3" d="M1339.6399,419.6559c-48.3406-64.4596-68.3492-91.1403-137.4624-161.5665
						c56.6194,3.5879,106.557,9.1068,146.6042,16.5878c19.0295,18.7887,44.3264,43.9414,62.4952,63.5637
						c21.9945,31.1765,41.8273,64.5532,59.2375,99.8829C1434.2925,430.4295,1389.9834,424.2802,1339.6399,419.6559"/>
					<path fill="#FF1D25" d="M1384.2808,742.655c18.4755-83.4395,25.3884-114.6602,29.4896-204.128
						c-61.7784-6.9482-133.9447-11.4562-212.4877-13.5626c-14.7646,70.5676-20.876,99.7764-53.3776,208.2444
						C1233.4536,733.848,1313.6462,736.9831,1384.2808,742.655"/>
					<path fill="#CCCCCC" d="M1374.4156,1091.7366l-0.2009-0.2269c-40.6995,70.2148-57.5454,99.2777-119.2657,186.7007
						C1310.6038,1198.8138,1328.2992,1172.0902,1374.4156,1091.7366"/>
					<path fill="#CCCCCC" d="M1531.7599,897.4379l20.5347-17.0298c0.0016-0.0205,0.0031-0.041,0.0046-0.0615l-20.5789,17.0512
						L1531.7599,897.4379"/>
					<path fill="#D9E021" d="M1401.5509,1294.7979c16.9231-20.8033,39.4226-48.6075,55.6005-69.9956
						c18.4816-36.723,34.6056-75.0271,48.1403-114.5975c-36.2223-7.6945-80.532-13.8439-130.876-18.4681
						c-40.774,70.1125-57.6509,99.1331-119.4667,186.4738C1311.5675,1281.7981,1361.5044,1287.317,1401.5509,1294.7979"/>
					<path fill="#998675" d="M1435.9352,967.0041c30.4102,37.1039,54.4298,66.4107,78.4863,115.0327
						c9.4073-30.7024,17.2687-62.1019,23.4803-94.0582c-1.3499-27.1912-3.3125-63.4635-6.142-90.5407l-0.0396-0.0402
						c-36.8226-47.4673-65.9075-84.96-147.4396-154.7427c18.4727,59.7986,37.5743,121.6332,46.1246,184.0089
						C1432.0643,938.766,1431.0504,955.8081,1435.9352,967.0041"/>
					<path fill="#534741" d="M1537.9019,987.9786c6.8503-35.2427,11.6943-71.1625,14.3927-107.5706l-20.5347,17.0299
						C1534.0901,924.5626,1537.0719,960.7666,1537.9019,987.9786"/>
					<path fill="#00FF00" d="M1078.3022,1378.3364c55.9521-32.576,70.9904-41.3314,176.6467-100.1261
						c-67.6504,37.5641-121.0848,67.2344-176.6516,99.85L1078.3022,1378.3364"/>
					<path fill="#666666" d="M923.118,1562.5912c17.0411-38.8083,24.0947-54.8716,60.1039-125.458
						c-10.3249-58.6777-14.863-81.0677-41.5292-161.3208c-29.6003,80.2999-37.6031,103.333-55.1172,164.8761
						C907.8837,1496.4316,915.011,1516.2745,923.118,1562.5912"/>
					<path fill="#ED1E79" d="M1054.6758,1519.2158c45.5388-23.5391,64.3881-33.2821,152.0275-75.8983
						c26.1487-58.1246,35.9327-79.8733,48.2457-165.1072c-67.7076,37.7039-121.1873,67.4847-176.6467,100.1261
						C1076.3145,1438.5557,1075.5707,1461.088,1054.6758,1519.2158"/>
					<path fill="#39B54A" d="M992.6026,1617.2531c57.153-28.0873,80.8095-39.713,157.0655-91.9741
						c-27.6179-3.1062-59.8798-5.1215-94.9923-6.0631c-45.1708,45.4602-61.4672,61.5045-103.5452,96.38
						C966.14,1615.7079,980.2098,1616.2579,992.6026,1617.2531"/>
					<path fill="#662D91" d="M1149.6681,1525.2789c65.2106-27.86,83.7404-35.7944,119.4254-51.4742
						c6.8445-6.1847,13.5924-12.5013,20.2408-18.9459c-28.3998-5.3792-40.3636-7.4523-82.4543-11.6353l-0.1768,0.094
						c-55.0942,26.8521-102.6752,50.0422-152.0275,75.8983C1089.7883,1520.1575,1122.0502,1522.1727,1149.6681,1525.2789"/>
					<path fill="#FBB03B" d="M983.2219,1437.1332c-10.3249-58.6777-14.863-81.0677-41.5292-161.3208
						c48.6917,31.5601,90.7433,58.8162,136.6047,102.2479l0.0049,0.2761c-1.9878,60.2192-2.7316,82.7516-23.6265,140.8794
						c-11.9105-21.2937-24.2264-43.3125-66.8588-78.3104C986.4384,1439.7737,984.1216,1438.6731,983.2219,1437.1332"/>
					<path fill="#534741" d="M951.1306,1615.5958c37.9405-31.8951,52.3829-44.4613,103.5452-96.38
						c-12.9991-23.2402-24.2257-43.3112-71.4539-82.0826c-32.4302,63.8845-41.1736,81.7166-60.1039,125.458
						C940.178,1580.231,954.9117,1595.4652,951.1306,1615.5958"/>
					<path fill="#666666" d="M1254.949,1278.2103c55.5645-79.4694,73.2306-106.2227,119.2657-186.7007
						c-38.3555-42.1348-68.6509-75.4153-150.7661-138.068c-31.7166,72.5776-44.8445,102.6184-95.3137,203.8204
						C1174.2778,1194.266,1214.1283,1226.2236,1254.949,1278.2103"/>
					<path fill="#FCEE21" d="M1223.4486,953.4417c78.5426,2.1063,150.7084,6.6142,212.4866,13.5624
						c-12.4329-84.1729-17.0848-115.668-51.6544-224.3491c-70.6345-5.6719-150.8271-8.8071-236.3756-9.4461
						C1186.5471,831.6142,1198.1506,863.7321,1223.4486,953.4417"/>
					<path fill="#93278F" d="M1374.2147,1091.5096l0.2009,0.2269c50.344,4.6243,94.6537,10.7737,130.876,18.4681
						c3.188-9.3204,6.2323-18.7112,9.1299-28.168c-19.8353-36.5011-35.5024-65.3318-78.4863-115.0327
						c-61.7782-6.9482-133.944-11.4561-212.4866-13.5624C1285.3953,1002.2835,1322.9406,1032.7776,1374.2147,1091.5096"/>
					<path d="M137.2166,987.2186c18.8784-49.6586,35.1823-92.5452,93.4889-169.4149
						c-41.5831-31.1973-77.4956-58.1401-107.4139-99.7917c-26.4789,50.5946-49.3468,94.2896-57.3954,169.6144
						C78.3116,918.7307,88.1181,943.2989,137.2166,987.2186"/>
					<path fill="#736357" d="M652.9888,620.7953c89.6151-8.0974,181.4144-13.8206,271.2924-17.1301
						c-32.213-66.313-32.213-66.313-93.0416-188.033c-83.5259,4.4181-167.6558,11.0547-248.5859,19.8731
						C603.1105,496.9055,611.5778,522.3198,652.9888,620.7953"/>
					<path fill="#333333" d="M481.0163,384.1495l0.0699-0.149c58.2235-35.6881,100.291-61.4733,197.6391-115.0371
						c-43.1375-20.4131-87.7436-41.5211-120.7797-62.2187l0.0544-0.2088c-54.4968,28.875-105.9712,56.1487-178.4265,105.1333
						C399.9176,331.894,417.4875,349.3607,481.0163,384.1495"/>
					<path fill="#FF00FF" d="M557.9999,206.536c12.797-40.6138,17.5853-55.8103,53.7619-89.6871
						c6.0975,10.3117,10.1257,17.1239,51.0609,38.5895c-0.674,44.1665,1.4067,59.0203,15.9026,113.5251
						c-43.1375-20.4131-87.7436-41.5211-120.7797-62.2187L557.9999,206.536"/>
					<path fill="#662D91" d="M678.7252,268.9634c-12.8024-50.2266-17.5927-69.02-15.9026-113.5251
						c50.9866-5.5557,103.9891-9.7368,156.6111-12.5202c19.8877,33.5677,24.613,41.5434,69.4826,112.7733
						C819.2809,258.2556,748.1569,262.6898,678.7252,268.9634"/>
					<path fill="#ED1C24" d="M1086.1255,345.218c43.6499-29.597,81.3472-55.1577,116.052-87.1286
						c-27.6294,24.053-47.5919,41.4316-116.1542,86.9886L1086.1255,345.218"/>
					<path fill="#8C6239" d="M1086.0233,345.0781c43.6819-29.5528,81.4069-55.0756,116.1542-86.9886
						c-56.9227-26.819-98.0502-46.1962-186.0005-80.8279c-32.0549,21.4848-51.403,34.4529-127.2607,78.4299
						C947.7417,281.2353,1008.5698,307.6488,1086.0233,345.0781"/>
					<path fill="#A67C52" d="M984.6407,409.9891c-32.2503-53.3417-44.3174-73.3008-95.7244-154.2977
						c58.8254,25.5439,119.6535,51.9573,197.107,89.3866l0.1022,0.14c52.6287,75.062,69.5636,100.6451,115.1572,179.7465
						c-59.2817-33.9061-110.4792-63.1885-207.0953-110.3185C991.3234,413.249,986.993,412.1388,984.6407,409.9891"/>
					<path fill="#FF0000" d="M924.2812,603.6652c31.0726-94.3701,40.0389-122.0123,60.3595-193.6761
						c-32.2503-53.3417-44.3174-73.3008-95.7244-154.2977c-16.5837,49.791-22.7889,68.4214-57.6767,159.9408
						C891.1993,535.5251,894.7886,542.7023,924.2812,603.6652"/>
					<path fill="#2E3192" d="M831.2396,415.6323c31.8106-83.7386,39.6178-104.9402,57.6767-159.9408
						c-69.6354,2.5641-140.7595,6.9984-210.1911,13.272c-42.8911,69.8578-56.8975,93.5987-96.0715,166.5419
						C663.5838,426.687,747.7137,420.0503,831.2396,415.6323"/>
					<path fill="#998675" d="M1147.9052,733.2089c29.2529-98.8888,37.0676-127.7019,53.3776-208.2444
						c-64.1426-36.6862-110.4866-63.1926-216.642-114.9754c-17.7479,61.7243-24.3887,84.8198-60.3595,193.6761
						C994.2493,641.2198,1060.3369,676.6918,1147.9052,733.2089"/>
					<path fill="#8CC63F" d="M375.6119,578.4699c35.2251-74.8625,49.8053-105.849,105.4044-194.3204
						c-40.1725-23.0047-74.8668-42.8722-101.4429-72.4802c-51.1969,62.8988-72.3879,88.9334-124.3704,178.771
						C282.4673,516.2104,304.0023,536.5652,375.6119,578.4699"/>
					<path fill="#FFFF00" d="M582.6537,435.5054c-78.3964,49.906-139.1368,89.3734-207.0418,142.9645
						c35.2251-74.8625,49.8053-105.849,105.4044-194.3204l0.0698-0.149c58.2235-35.6881,100.291-61.4733,197.6391-115.0371
						c-14.4742,23.5745-52.9227,86.1963-77.9822,132.8588C595.3162,411.9272,590.4584,427.1002,582.6537,435.5054"/>
					<path d="M230.7054,817.8037c57.2626-13.9546,128.3088-27.2587,211.9994-39.2213
						c-32.92-81.9023-45.2378-112.5479-67.0929-200.1125c-72.7039,12.2222-132.9615,25.5234-179.6853,39.2436
						C200.8415,691.5117,202.6805,719.1248,230.7054,817.8037"/>
					<path fill="#3FA9F5" d="M123.2915,718.012l-0.011-0.0237c-26.4756,50.6036-49.3408,94.3064-57.3844,169.6381
						C73.7487,836.8916,80.5304,793.0756,123.2915,718.012"/>
					<path fill="#3FA9F5" d="M255.203,490.4403c43.0156-72.7879,59.1108-100.0231,124.3704-178.771
						c-51.2498,62.8649-72.4627,88.8855-124.4974,178.6095L255.203,490.4403"/>
					<path fill="#1B1464" d="M195.9266,617.7135c46.7238-13.7202,106.9815-27.0214,179.6853-39.2436
						c-45.7354-27.8-85.2339-51.8091-120.4089-88.0296l-0.127-0.1615c-48.7612,12.737-84.9742,25.9866-107.6142,39.1272
						C152.5841,555.0165,157.0078,577.1346,195.9266,617.7135"/>
					<path fill="#00FFFF" d="M123.2805,717.9882l0.011,0.0237c23.4772,29.4979,42.0209,52.7972,107.4139,99.7917
						c-21.8584-80.1891-30.0371-110.1937-34.7789-200.0902c-23.7836-27.0563-44.3238-50.4231-48.4648-88.3076
						C112.6026,662.4626,122.0845,712.6981,123.2805,717.9882"/>
					<path fill="#8C6239" d="M147.4617,529.4059c0.6958-29.3344,0.7091-29.8949,13.4105-57.6481
						c10.167-16.727,23.191-39.3716,34.0299-55.6712c13.6706-18.863,31.6644-44.2113,46.2296-62.3924l-8.2059,11.1085
						C191.6971,424.7633,176.2704,447.1989,147.4617,529.4059"/>
					<path fill="#F15A24" d="M255.076,490.2788c43.0823-72.7315,59.2025-99.9457,124.4974-178.6095
						c-47.7293,10.4435-85.1038,21.485-111.254,32.597c-51.6723,65.2444-73.0602,92.25-120.8576,185.1397
						C170.1017,516.2654,206.3148,503.0158,255.076,490.2788"/>
					<path fill="#FBB03B" d="M268.3194,344.2662c26.1502-11.112,63.5247-22.1534,111.254-32.597
						c21.6036-51.9932,29.687-71.4477,77.0255-121.8067l-0.1527,0.0834c-30.7199,8.0244-53.5344,16.3718-67.7978,24.6504
						C334.7804,259.7708,314.6246,276.6738,268.3194,344.2662"/>
					<path fill="#2E3192" d="M232.9259,364.8027c52.9345-61.8754,74.8447-87.4865,155.7224-150.2063l11.4335-8.8257l-34.971,26.0976
						c-59.1325,50.3344-61.4408,52.2993-92.6477,85.7867l-31.3313,36.0392L232.9259,364.8027"/>
					<path fill="#FFFF00" d="M147.4617,529.4059c39.8876-75.3818,54.8125-103.5876,120.8576-185.1397
						c38.6714-54.5405,53.1412-74.948,120.3289-129.6698c-63.4981,50.4207-89.7808,71.2904-155.7224,150.2063
						C191.6971,424.7633,176.2704,447.1989,147.4617,529.4059"/>
					<path fill="#00A99D" d="M456.446,189.946l0.1528-0.0834c45.0909-24.0473,84.0328-44.8152,155.163-73.0137
						c-32.5035,5.4641-59.4426,11.4106-80.3312,17.5445c-44.2312,20.8597-86.0094,40.5626-142.7823,80.2031
						C402.9117,206.3178,425.7261,197.9704,456.446,189.946"/>
					<path fill="#FF931E" d="M388.6483,214.5964c39.3787-26.2207,73.3874-48.8656,142.7823-80.2031
						c17.3718-11.2588,17.3718-11.2588,30.6656-16.7645c-52.3626,22.7822-56.6398,24.6432-89.7495,42.769
						c-21.9293,13.2057-51.07,31.0183-72.2649,45.373L388.6483,214.5964"/>
					<path fill="#808080" d="M147.4617,529.4059c0.6958-29.3344,0.7091-29.8949,13.4105-57.6481l-27.2909,53.6907
						c-31.3653,75.5189-31.9645,76.9617-43.6924,118.5513l-4.9545,18.5151c12.1899-38.6245,22.7174-71.9818,48.4946-111.562
						C137.6388,544.4888,145.1785,536.7744,147.4617,529.4059"/>
					<path fill="#93278F" d="M65.8961,887.6263c7.8517-50.7448,14.6326-94.5694,57.3844-169.6381
						c0.3123-75.2443,0.4292-103.3987,24.1813-188.5823c-32.9358,52.4925-45.2075,73.6713-62.5274,133.1089
						c-4.3684,20.5363-10.8085,47.8072-14.2682,68.5159C61.6502,809.0647,61.2982,812.1108,65.8961,887.6263"/>
					<path fill="#00FFFF" d="M866.0105,1087.7129c23.2399-71.3239,26.2259-80.4879,72.2019-214.78
						c-89.8782,3.3095-181.678,9.0328-271.2933,17.1301c-26.7108,99.208-34.4805,131.1724-49.4969,217.5231
						C698.353,1098.7677,782.4838,1092.131,866.0105,1087.7129"/>
					<path fill="#006837" d="M620.1439,1407.8153l-0.0671-0.2725c25.1804-33.2859,46.9269-62.0325,111.428-118.4587
						c-80.7813-37.842-100.2576-46.5111-208.3964-92.7592l-0.076-0.1318c-36.5252,41.7129-68.0694,77.7374-90.6747,135.5962
						C497.338,1358.9146,509.8793,1364.0621,620.1439,1407.8153"/>
					<path fill="#3FA9F5" d="M886.5754,1440.6885c15.7607-54.1608,22.2842-76.5786,55.1172-164.8761
						c-69.6343,2.5641-140.7572,6.9983-210.1878,13.2717c-6.4435,67.3442-9.1107,95.2189-1.5446,164.1249
						C780.9481,1447.6532,833.9521,1443.4719,886.5754,1440.6885"/>
					<path fill="#8C6239" d="M1254.949,1278.2103c-29.6556-35.1873-55.267-65.5759-126.8959-120.8083l0.0818-0.1399
						C1174.2778,1194.266,1214.1283,1226.2236,1254.949,1278.2103"/>
					<path fill="#009245" d="M731.5048,1289.0841c69.4306-6.2734,140.5535-10.7076,210.1878-13.2717
						c-23.0943-63.7616-32.6533-90.1533-75.6821-188.0995c-83.5267,4.4181-167.6575,11.0548-248.5883,19.8733
						C659.3862,1175.3085,659.3862,1175.3085,731.5048,1289.0841"/>
					<path fill="#006837" d="M941.6926,1275.8124c23.7908-61.1088,29.4434-75.6282,77.7205-193.7427
						c-25.2916-71.5983-35.7601-101.2337-81.2007-209.1368c-42.4082,123.8438-48.9262,142.8782-72.2019,214.78
						C905.007,1177.1421,915.8145,1203.1797,941.6926,1275.8124"/>
					<path fill="#F15A24" d="M1128.0531,1157.402c-61.3875,37.5892-119.3703,73.0939-186.3605,118.4104
						c23.7908-61.1088,29.4434-75.6282,77.7205-193.7427c67.8136-43.1947,136.0493-85.7073,204.0355-128.6281
						c-31.7166,72.5776-44.8445,102.6184-95.3137,203.8204L1128.0531,1157.402"/>
					<path fill="#8CC63F" d="M1078.2974,1378.0603c56.0693-32.5546,71.139-41.3042,176.6516-99.85
						c-29.6556-35.1873-55.267-65.5759-126.8959-120.8083c-61.3875,37.5892-119.3703,73.0939-186.3605,118.4104
						C990.3843,1307.3724,1032.4359,1334.6285,1078.2974,1378.0603"/>
					<path fill="#C1272D" d="M1019.4131,1082.0697c67.8136-43.1947,136.0493-85.7073,204.0355-128.6281
						c-22.7566-78.6919-32.1758-111.2635-75.5435-220.2327c-69.6646,46.9284-139.8321,93.09-209.6927,139.724
						C981.6535,976.7747,992.2779,1004.1384,1019.4131,1082.0697"/>
					<path fill="#8C6239" d="M938.2124,872.9329c191.6705-127.4956,191.6705-127.4956,209.6927-139.724
						c-65.485-41.2101-112.799-70.985-223.624-129.5437c-65.8154,42.9401-133.8715,87.3422-215.2553,145.823
						C785.416,789.4971,857.5696,827.2872,938.2124,872.9329"/>
					<path fill="#1B1464" d="M709.0259,749.4882c65.319-46.2374,104.7452-74.1461,215.2553-145.823
						c-89.8779,3.3095-181.6773,9.0328-271.2924,17.1301c-62.1064,43.1786-132.4992,92.1182-210.284,157.7871
						c6.7088-0.959,13.499-1.9093,20.3698-2.8506C541.6917,764.9606,624.7559,756.2023,709.0259,749.4882"/>
					<path fill="#F15A24" d="M442.7048,778.5825c58.2669-47.6223,104.2896-85.2372,210.284-157.7871
						c-37.3405-89.5215-47.5052-115.3271-70.3351-185.29c-78.3964,49.906-139.1368,89.3734-207.0418,142.9645
						C395.1133,653.5529,403.1682,681.9155,442.7048,778.5825"/>
					<path fill="#00FFFF" d="M666.9191,890.063c89.6153-8.0974,181.415-13.8206,271.2933-17.1301
						c-71.1578-39.7457-103.6346-57.8858-229.1865-123.4447c-84.27,6.7141-167.3342,15.4724-245.9513,26.2436
						c-6.8708,0.9413-13.6609,1.8917-20.3698,2.8506C558.7775,837.231,666.8621,890.0524,666.9191,890.063"/>
					<polyline fill="#FF1D25" points="901.3256,1649.9833 899.1951,1650.7181 901.3256,1649.9833 901.3256,1649.9833 					"/>
					<path fill="#603813" d="M1492.4055,1350.7687c11.5747-16.1088,27.5002-37.2535,38.4022-53.8251
						c16.0143-26.6959,36.7455-62.6967,50.9957-90.3744c-36.6284,68.3619-37.3282,69.668-84.8335,131.7819
						C1497.24,1342.4214,1495.702,1346.5706,1492.4055,1350.7687"/>
					<path fill="#29ABE2" d="M829.7998,1659.6885l-0.3582-0.0137l1.354,0.0503
						C830.463,1659.7131,830.131,1659.7009,829.7998,1659.6885"/>
					<path fill="#FF1D25" d="M901.7672,1650.661c4.4028,3.6237,11.8415,6.6857,17.4949,7.4303l5.9822-0.4619
						c6.0242-0.5267,14.0521-1.278,20.0692-1.8804C918.9853,1657.4886,910.9847,1657.678,901.7672,1650.661"/>
					<path fill="#0000FF" d="M901.7672,1650.661c0.1483,1.2273,0.3459,2.8635,0.4942,4.0907
						c-5.4454,4.0559-5.7714,4.2987-19.8098,5.197l4.8665-0.1489c12.5217-0.4939,12.5217-0.4939,18.7759-0.8499
						c3.951-0.2485,9.2192-0.5776,13.168-0.8586C913.6157,1657.2957,906.1297,1654.3331,901.7672,1650.661"/>
					<polyline fill="#754C24" points="901.3256,1649.9833 901.3256,1649.9833 901.7672,1650.661 901.3256,1649.9833 					"/>
					<path fill="#00FF00" d="M901.3256,1649.9833l-2.1306,0.7349c-15.7272,5.5006-24.3906,8.5306-25.4511,9.424l8.7077-0.1934
						c16.5782-1.4689,16.5782-1.4689,20.1499-6.5386c-0.2503-0.8247-0.584-1.9244-0.8344-2.7491L901.3256,1649.9833"/>
					<path fill="#ED1E79" d="M901.3256,1649.9833l0.4416,0.6777c0.5479-0.0353,1.0942-0.0852,1.6142-0.1492L901.3256,1649.9833"/>
					<path fill="#7AC943" d="M901.3256,1649.9833l2.0558,0.5286c0.0001,0,0.0002,0,0.0002,0
						c20.2612,3.1763,39.3988,6.1764,92.0247-1.8457C945.2695,1652.9265,942.2681,1653.1815,901.3256,1649.9833"/>
					<path fill="#A67C52" d="M903.3817,1650.5118c-0.0001,0-0.0001,0-0.0002,0c-0.52,0.064-1.0663,0.1139-1.6142,0.1492
						c8.5679,5.8192,12.4229,7.3943,43.5463,5.088l0.5708-0.0609c15.038-1.7209,15.625-1.7881,23.6409-2.8862l2.004-0.2777
						c8.7266-1.2114,16.6989-2.5055,23.8771-3.858c-15.2688,1.9745-35.6774,4.7462-51.0702,5.0549
						c-11.4944,0.2305-27.0192-0.0671-38.2344-2.5959C905.2857,1650.9412,904.2171,1650.5533,903.3817,1650.5118"/>
					<path fill="#FCEE21" d="M995.4063,1648.6661c-7.1782,1.3525-15.1505,2.6466-23.8771,3.858
						c15.2625-2.3486,34.2572-5.2715,59.2316-10.7383L995.4063,1648.6661"/>
					<path fill="#C1272D" d="M905.8182,1649.9764c77.2891-3.0179,109.2802-4.2671,193.9745-26.5502
						c10.7355-4.001,17.4771-8.0579,19.9122-11.9811c-77.2211,21.1858-109.1838,29.9548-213.6257,38.2762
						C906.0847,1649.8036,905.9954,1649.89,905.8182,1649.9764"/>
					<path fill="#FF7BAC" d="M901.3256,1649.9833l4.4926-0.0068c0.1772-0.0864,0.2665-0.1729,0.2611-0.255L901.3256,1649.9833"/>
					<path fill="#333333" d="M901.3256,1649.9833L901.3256,1649.9833l4.0626,0.1531
						c71.9262-1.0405,101.6974-1.4712,194.4045-26.7101c-67.9294,16.8727-96.0464,23.8564-193.9745,26.5502L901.3256,1649.9833"/>
					<path fill="#C1272D" d="M901.3256,1649.9833c56.266,2.7539,59.6342,2.9188,94.0807-1.3171
						c-19.1266,1.6926-37.1926,3.2913-90.0181,1.4702L901.3256,1649.9833C901.3256,1649.9833,901.3256,1649.9833,901.3256,1649.9833
						"/>
					<path fill="#C7B299" d="M905.3882,1650.1364c32.6929,0.8494,63.5726,1.6516,90.0181-1.4702l35.3546-6.8802
						c41.2572-9.5922,51.0575-12.4417,87.5856-24.142l-18.5537,5.7823C1026.2981,1642.3816,995.8777,1650.2274,905.3882,1650.1364"
						/>
					<path fill="#1A1A1A" d="M1099.7927,1623.4263l18.5537-5.7823l15.6196-5.4713c61.9094-24.5419,63.0922-25.0107,122.5228-56.7531
						l14.9526-8.7506c-10.2513,5.5812-24.0575,12.7885-34.6249,17.7455
						C1198.2358,1585.0038,1164.9163,1602.7853,1099.7927,1623.4263"/>
					<path fill="#0000FF" d="M1236.8167,1564.4144c10.5098-5.078,24.4546-12.0178,34.6249-17.7455
						c20.5121-13.3036,47.8512-31.0968,67.6614-45.4246c2.7234-2.418,6.3562-5.7096,8.5544-8.613
						c-28.3241,16.6575-50.696,29.8145-112.2057,54.009C1242.8428,1552.2163,1243.1356,1558.2393,1236.8167,1564.4144"/>
					<path fill="#0000FF" d="M1235.4517,1546.6404c38.269-15.5865,74.4158-30.3087,112.2057-54.009
						c61.9679-52.0657,87.6172-73.6163,149.3126-154.2803c-26.0614,22.5378-46.6462,40.3395-108.4545,74.3795
						C1337.6538,1469.214,1316.6014,1492.5931,1235.4517,1546.6404"/>
					<path fill="#009245" d="M1119.705,1611.4452c-2.4352,3.9232-9.1768,7.9801-19.9122,11.9811
						c41.7222-14.1195,81.1305-27.4561,137.0239-59.0118c6.319-6.1752,6.0261-12.1981-1.365-17.774
						c-27.1277,20.2273-55.179,41.1432-109.9224,62.5295C1123.782,1609.8525,1121.1472,1610.2456,1119.705,1611.4452"/>
					<path fill="#29ABE2" d="M901.3256,1649.9833c77.3834-9.9225,82.0159-10.5165,133.569-25.0259
						c-31.8116,6.7236-59.2852,12.5304-102.4276,19.9686C922.1573,1646.8638,911.7753,1648.5516,901.3256,1649.9833"/>
					<path fill="#FCEE21" d="M1022.3065,1621.2054c5.389,1.1447,9.5688,2.4053,12.5882,3.752
						c77.2302-23.1257,109.1969-32.6978,200.557-78.317c-6.9133-5.2155-20.037-10.0397-39.769-14.2311
						C1141.981,1570.0511,1083.8184,1600.1527,1022.3065,1621.2054"/>
					<path fill="#BDCCD4" d="M932.4671,1644.926c32.7004-5.8235,58.5293-10.4232,102.4276-19.9686
						c-3.0194-1.3467-7.1992-2.6073-12.5882-3.752C993.0765,1631.2095,963.0903,1639.1703,932.4671,1644.926"/>
					<path fill="#603813" d="M901.3256,1649.9833c77.3834-9.9225,82.0159-10.5165,133.569-25.0259
						c-34.1287,10.6504-66.3647,20.7103-128.8154,24.764L901.3256,1649.9833
						C901.3256,1649.9833,901.3256,1649.9833,901.3256,1649.9833"/>
					<path fill="#2E3192" d="M906.0793,1649.7214c82.7234-7.4855,116.9637-10.5837,213.6257-38.2762
						c38.108-16.0146,74.1025-31.1412,115.7467-64.8048c-78.0668,38.0436-107.2146,51.3638-200.557,78.317
						C1000.7659,1635.6078,968.53,1645.6677,906.0793,1649.7214"/>
					<polyline fill="#FCEE21" points="901.3256,1649.9833 901.7672,1650.661 901.3256,1649.9833 					"/>
					<path fill="#3FA9F5" d="M375.2871,1495.095c-62.429-52.0608-88.2693-73.6095-150.3448-154.2036
						c-7.3907-7.8634-17.2264-18.4254-23.7062-27.0548c15.739,21.0458,36.7447,49.1259,53.6101,69.2804
						c54.7408,58.6458,55.7866,59.7661,89.1298,88.0942l12.7965,10.5881L375.2871,1495.095"/>
					<path fill="#FBB03B" d="M896.9163,1649.9243c-35.9875-1.9-69.9792-3.6945-106.7083-19.4865
						c-73.3011-21.3949-100.5176-30.0568-184.9753-69.7587c17.7537,21.1309,33.0864,39.38,82.1818,60.3828
						C766.36,1638.7667,799.0366,1646.0948,896.9163,1649.9243"/>
					<path fill="#F7931E" d="M685.5607,1543.1354c-32.4097-45.4518-44.5366-62.4586-65.4169-135.3201
						c-69.8382-27.7156-130.1526-51.6515-187.7862-76.026c27.7763,66.0345,38.1694,90.7428,91.4009,155.9994
						C563.2633,1501.5887,563.2633,1501.5887,685.5607,1543.1354"/>
					<path fill="#999999" d="M729.9602,1453.209c-5.2689-55.2371-7.4498-78.1003,1.5446-164.1249
						c-38.417,34.7577-78.142,70.6987-111.428,118.4587l0.0671,0.2725c17.4707,57.1464,24.7021,80.8,65.4169,135.3201
						c3.6511-21.7939,7.4264-44.3297,40.9146-85.6287C727.5208,1456.2174,729.4806,1454.7981,729.9602,1453.209"/>
					<path fill="#ED1C24" d="M827.4033,1623.5565c-10.084-17.8119-11.8803-29.407,3.1103-55.118
						c-46.2177-52.6443-60.1663-68.5326-100.5534-115.2295c-22.5258,29.8774-41.9798,55.6805-44.3995,89.9264
						C741.6936,1579.0879,764.9277,1593.969,827.4033,1623.5565"/>
					<path fill="#FF7BAC" d="M901.3256,1649.9833l-1.2112-0.6458c-15.881-7.2654-28.6996-12.626-72.7111-25.781
						C866.8896,1643.1014,868.431,1643.8644,901.3256,1649.9833"/>
					<path fill="#FBB03B" d="M901.3256,1649.9833c-45.7097-10.9346-47.494-11.3613-73.9223-26.4268
						c12.6465,10.9939,24.5916,21.3781,70.3799,26.1138L901.3256,1649.9833
						C901.3256,1649.9833,901.3256,1649.9833,901.3256,1649.9833"/>
					<path d="M897.7833,1649.6703c-27.8669-4.0253-54.1884-7.8273-70.3799-26.1138c-14.6835,2.0989-27.1486,4.4331-37.1953,6.8813
						c25.3968,9.3052,49.385,18.0944,106.7083,19.4865C897.1201,1649.8376,897.4114,1649.7516,897.7833,1649.6703"/>
					<path fill="#FF1D25" d="M790.208,1630.4379c10.0468-2.4482,22.5118-4.7825,37.1953-6.8813
						c-53.5385-25.9183-73.7239-36.2253-141.8426-80.4211c-32.5021,5.464-59.4402,11.4102-80.3281,17.5438
						C749.0238,1626.854,789.8608,1630.4318,790.208,1630.4379"/>
					<path fill="#603813" d="M901.3256,1649.9833l-3.5424-0.313c-0.3719,0.0813-0.6631,0.1674-0.8669,0.254L901.3256,1649.9833"/>
					<path fill="#CCCCCC" d="M523.5782,1487.7177l0.1804,0.071c-42.4621-53.8575-58.3503-74.0096-91.4009-155.9994
						c-47.7285,10.4434-85.1024,21.4846-111.2523,32.5964c44.8857,63.1761,61.6807,86.8148,134.6732,147.9829
						C470.0423,1504.0898,492.8574,1495.7423,523.5782,1487.7177"/>
					<path fill="#0071BC" d="M605.2327,1560.6792c20.8878-6.1337,47.8259-12.0798,80.3281-17.5438
						c-114.5827-38.8042-123.9423-41.9739-161.8022-55.3467l-0.1804-0.071c-30.7208,8.0247-53.5359,16.3722-67.7996,24.651
						C553.6196,1547.1759,605.0962,1560.6792,605.2327,1560.6792"/>
					<path fill="#F15A24" d="M553.4206,1590.7283c-34.1352-19.9264-66.3773-38.7477-97.642-78.3596
						c-68.5865-43.2965-96.9753-61.2175-170.0661-127.4467c19.4295,34.9839,36.2094,65.1971,89.5747,110.173
						C436.8019,1536.3625,462.2637,1553.4437,553.4206,1590.7283"/>
					<path fill="#603813" d="M455.7786,1512.3687c-58.6961-50.6427-80.6586-69.5918-134.6732-147.9829
						c-58.2577-58.1283-82.3713-82.1884-138.8794-162.8981c32.0064,75.412,43.9823,103.629,103.4864,183.4343
						C345.9889,1438.4128,368.5427,1458.4277,455.7786,1512.3687"/>
					<path fill="#666666" d="M285.7124,1384.922c-46.3199-63.9353-65.4924-90.3989-103.4864-183.4343
						c4.1298,43.2534,7.6965,80.6084,42.7163,139.4037c50.0962,63.3405,70.8317,89.558,150.3448,154.2036
						C324.3472,1449.0972,322.1651,1445.4724,285.7124,1384.922"/>
					<path fill="#8C6239" d="M137.209,987.2562l0.0076-0.0376c-30.6951-29.5502-57.2043-55.0706-71.3205-99.5923
						C78.3106,918.7429,88.1162,943.3206,137.209,987.2562"/>
					<path fill="#8C6239" d="M432.3576,1331.7893c-62.3191-66.2523-84.7813-90.965-142.3997-169.6764l-0.1167,0.2472
						C339.7455,1229.2841,358.4182,1254.3252,432.3576,1331.7893"/>
					<path fill="#C1272D" d="M218.0978,1046.1902c-19.9111,47.6157-37.1069,88.738-35.8718,155.2975
						c-25.9993-79.0942-35.7275-108.6891-45.017-214.2314l0.0076-0.0377c18.8783-49.6586,35.1823-92.5453,93.4888-169.4149
						c-8.7996,61.1466-17.8987,124.375-14.6696,187.853C216.6544,1017.8168,220.1891,1034.1953,218.0978,1046.1902"/>
					<path fill="#662D91" d="M321.1054,1364.3857c-58.2577-58.1283-82.3713-82.1884-138.8794-162.8981
						c22.6402-13.1407,58.8536-26.3904,107.6152-39.1276c48.5016,65.043,68.577,91.9651,142.5164,169.4292
						C384.6291,1342.2327,347.2552,1353.2739,321.1054,1364.3857"/>
					<path fill="#333333" d="M432.3576,1331.7893c17.6314-39.3147,32.8584-73.2681,90.6747-135.5962
						c-59.1005-82.0432-77.7428-109.3401-125.2501-189.2463c-41.4221,47.3726-77.1954,88.2849-107.8242,155.1661
						C338.4095,1227.2548,358.4642,1254.2178,432.3576,1331.7893"/>
					<path fill="#2E3192" d="M397.7822,1006.9468c10.6881-84.5085,14.6872-116.1293,44.9227-228.3643
						c-83.6907,11.9626-154.7368,25.2667-211.9994,39.2213c-13.0246,90.5056-17.898,124.3702-12.6076,228.3865
						C264.8214,1032.47,325.0787,1019.1689,397.7822,1006.9468"/>
					<path fill="#006837" d="M289.8412,1162.3601l0.1167-0.2472c23.061-45.4255,42.9772-84.6564,107.8242-155.1661
						c-72.7035,12.2222-132.9608,25.5232-179.6844,39.2434c-19.9111,47.6157-37.1069,88.738-35.8718,155.2975
						C204.8662,1188.3469,241.0796,1175.0973,289.8412,1162.3601"/>
					<path fill="#808080" d="M523.0323,1196.193c-59.1005-82.0431-77.7428-109.34-125.2501-189.2462
						c72.7681,34.5251,146.4606,67.012,219.64,100.6394c41.964,67.7223,41.964,67.7223,114.0826,181.4979
						c-80.7813-37.842-100.2576-46.5111-208.3964-92.7592l-0.076-0.1318"/>
					<path fill="#F15A24" d="M617.4222,1107.5862c13.6948-75.9113,19.3632-107.3319,49.4969-217.5231
						c-200.0172-99.0324-200.0172-99.0324-224.2143-111.4806c-24.9274,95.0983-33.3642,129.8791-44.9226,228.3643
						C470.5503,1041.4719,544.2428,1073.9587,617.4222,1107.5862"/>
					<path fill="#534741" d="M102.2004,1113.4063c-6.0402-19.2935-14.5097-44.9172-19.461-64.5184
						c6.0055,21.1353,13.4767,49.4907,20.4502,70.3267L102.2004,1113.4063"/>
					<path fill="#00FFFF" d="M182.226,1201.4877c-25.9993-79.0942-35.7275-108.6891-45.017-214.2314
						c-30.6929-29.5627-57.2001-55.094-71.3129-99.6299c4.5673,89.2855,6.2762,122.6936,36.3043,225.7799
						C117.8776,1140.8936,130.2605,1162.6046,182.226,1201.4877"/>
					<path fill="#FF1D25" d="M102.2004,1113.4063c-22.7354-82.1151-32.1459-116.1036-36.3043-225.7799
						c-3.521-67.183-4.3575-83.1458,4.7701-156.5955l-5.3519,38.9454c-6.0873,84.9534-6.2036,86.5764-3.9207,131.6116
						c7.7265,83.7007,8.3576,90.5377,21.2769,147.0144l0.0689,0.2855C88.3772,1068.3027,95.4905,1094.3353,102.2004,1113.4063"/>
					<path fill="#C7B299" d="M224.9423,1340.8914c-21.4338-40.037-39.9447-74.614-42.7163-139.4037
						c-32.7796-26.1537-61.0891-48.7408-80.0256-88.0814l10.0991,31.0762l10.2923,25.7373
						c35.2768,75.5001,35.2768,75.5001,57.9444,112.0377l20.6999,31.5791C208.05,1322.2047,217.2966,1333.2756,224.9423,1340.8914"
						/>
					<polyline fill="#22B573" points="102.2004,1113.4063 103.1896,1119.2145 112.2995,1144.4824 102.2004,1113.4063 					"/>
					<path fill="#D4145A" d="M375.2871,1495.095l-18.5147-13.2957l24.7255,19.2462
						C379.6257,1499.2698,377.1328,1496.8983,375.2871,1495.095"/>
					<path fill="#FFFF00" d="M901.3256,1649.9833L901.3256,1649.9833c-80.0391,1.9067-84.8305,2.0209-140.0197-2.7861
						c1.7485,2.3513,6.3563,4.5464,14.0223,6.4644C844.6188,1655.1991,848.7667,1655.2911,901.3256,1649.9833"/>
					<path fill="#754C24" d="M829.7712,1659.6874c12.538-0.3845,23.3662-0.7167,68.0991-9.0505
						c-55.9841,7.0909-84.0847,10.6503-153.2181,1.2716l8.3459,1.1725c26.3142,3.2163,26.3142,3.2163,39.8495,4.3623
						c19.8898,1.4819,19.8898,1.4819,29.8135,1.9451l6.7805,0.2865l0.3582,0.0137
						C829.7902,1659.6881,829.7807,1659.6877,829.7712,1659.6874"/>
					<path fill="#00FFFF" d="M901.3256,1649.9833l-3.4553,0.6536c0.3862,0.0422,0.8361,0.0692,1.3248,0.0813L901.3256,1649.9833"/>
					<path fill="#29ABE2" d="M899.1951,1650.7181c-15.7272,5.5006-24.3906,8.5306-25.4511,9.424l-5.8033,0.077
						c-13.7155,0.0444-13.9775,0.0453-21.0563-0.0701c-4.827-0.1145-11.2632-0.2612-16.0887-0.424
						c-0.3326-0.012-0.6646-0.0242-0.9958-0.0366c-0.0096-0.0004-0.0191-0.0007-0.0286-0.0011
						c12.538-0.3845,23.3662-0.7167,68.0991-9.0505C898.2565,1650.6791,898.7064,1650.7061,899.1951,1650.7181"/>
					<path fill="#C7B299" d="M901.3256,1649.9833c-73.1647,5.6793-77.5446,6.0193-125.9973,3.6782
						c39.0934,2.6107,76.0186,5.0767,122.542-3.0247L901.3256,1649.9833"/>
					<path fill="#0071BC" d="M901.3256,1649.9833l-4.4093-0.059c-37.0537-0.9021-75.369-1.835-135.624-7.2361
						C839.5822,1651.2263,844.2689,1651.7374,901.3256,1649.9833"/>
					<path fill="#FF00FF" d="M687.4145,1621.062c-30.1587-14.3563-58.6448-27.9166-82.1818-60.3828
						c17.7054,21.1105,32.9964,39.342,82.0013,60.3367L687.4145,1621.062"/>
					<path fill="#ED1C24" d="M761.2923,1642.6882c39.3441,3.2179,76.5061,6.2573,135.624,7.2361
						c-83.7412-4.2158-114.7513-6.6107-209.5018-28.8623l-0.1805-0.0461c-41.0803-7.7881-83.5591-15.8413-133.8134-30.2876
						C610.3203,1610.3796,674.8117,1632.6531,761.2923,1642.6882"/>
					<path fill="#FFFF00" d="M687.234,1621.0159c-30.1046-14.3518-58.5395-27.9076-82.0013-60.3367
						c-46.2969-13.7705-94.1699-28.0098-149.4541-48.3105c22.8808,26.0868,42.6413,48.6161,97.642,78.3596
						C590.1346,1600.7178,619.1335,1608.6082,687.234,1621.0159"/>
					<path fill="#0071BC" d="M901.3256,1649.9833c-76.8002,0.2589-84.8284,0.2859-140.0333-7.295
						c-86.2645-13.8816-117.8472-19.8066-207.8717-51.96c75.1475,29.4806,106.252,41.683,207.8854,56.4689
						C834.8375,1651.9619,844.2852,1652.5742,901.3256,1649.9833"/>
					<path fill="#736357" d="M553.4206,1590.7283c0.0052,5.7119,6.2787,11.1572,19.2475,16.0774l-10.3417-4.0714
						c-66.9541-29.6512-70.9622-31.4263-115.6846-57.7808c-19.7012-12.9348-46.0984-30.0258-65.1438-43.908
						c-1.8722-1.7758-4.6576-3.89-6.2108-5.9506C436.8019,1536.3625,462.2637,1553.4437,553.4206,1590.7283"/>
					<path fill="#ED1C24" d="M775.3283,1653.6615c-71.171-8.4061-103.6538-12.2427-187.0721-41.0348
						c51.54,17.0521,59.4616,19.6731,105.7224,30.2141c15.1616,2.9376,35.4255,6.6178,50.6735,9.0676
						c60.8913,6.1484,91.4551,9.2346,153.2181-1.2716C872.066,1654.2173,833.0702,1659.6279,775.3283,1653.6615"/>
					<path fill="#2E3192" d="M761.306,1647.1971c-82.5211-13.0964-113.3983-17.9967-207.8854-56.4689
						c0.0052,5.7119,6.2787,11.1572,19.2475,16.0774l15.5881,5.821c71.0186,22.7968,103.4319,33.2014,187.0721,41.0348
						C767.6622,1651.7435,763.0545,1649.5485,761.306,1647.1971"/>
				</g>
			</g>
		</g>
		<g>
			<g>
				<g>
					<path fill="#C69C6D" d="M1611.7003,995.8561c-20.2563-29.576-36.2561-52.9371-97.0177-99.5919
						c33.962-51.6296,63.2927-96.2184,83.0941-169.5831c27.5237,29.4686,51.2938,54.9185,60.5482,99.6897
						C1653.7675,877.0486,1649.8314,920.8156,1611.7003,995.8561"/>
					<path fill="#0071BC" d="M1514.6826,896.2642c33.9521-51.6516,63.2742-96.2595,83.0565-169.6328l0.0376,0.0496
						C1582.0873,776.3439,1568.5375,819.2344,1514.6826,896.2642"/>
					<path fill="#0071BC" d="M1563.1438,498.1381l-0.0568-0.0601c-38.2311-74.0734-52.536-101.7896-118.8848-179.8468
						C1496.0383,380.832,1517.4939,406.7433,1563.1438,498.1381"/>
					<path fill="#C7B299" d="M1597.7767,726.681l-0.0376-0.0496c-30.5825-74.3716-42.0256-102.1994-99.8317-189.3353
						c41.6854,26.7374,77.6863,49.8287,110.8048,88.7727c28.4476,75.3292,39.0919,103.5153,49.6127,200.3019
						C1645.1158,780.6284,1641.5409,776.5546,1597.7767,726.681"/>
					<path fill="#333333" d="M1174.4843,124.1243l20.2737,8.9977c-9.8438-4.035-23.0273-9.297-33.0839-12.7681
						c-3.3243-2.5079-8.0847-4.9254-14.3252-7.2255L1174.4843,124.1243"/>
					<path fill="#1A1A1A" d="M1410.696,350.9628c-61.5642-54.7325-84.5999-75.2119-171.2563-131.3955
						c22.139-8.2511,36.0417-16.6173,41.0636-24.7077c67.0042,41.4762,94.738,58.6437,163.699,123.3717
						C1444.9023,328.7855,1433.446,339.8704,1410.696,350.9628"/>
					<path fill="#8C6239" d="M1389.3875,259.7929c26.0991,24.7881,59.7023,59.1241,83.8794,85.7902
						c-8.3622-8.5693-19.8677-19.6854-29.0646-27.3519c-30.8136-36.6457-32.0165-38.0762-56.8774-60.2484L1389.3875,259.7929"/>
					<path fill="#F7931E" d="M1254.9916,164.0157c-27.4685-14.1699-64.83-31.6716-93.3175-43.6617
						c9.999,3.6334,23.3242,8.5338,33.0839,12.7681C1212.8939,142.2606,1237.2576,154.1197,1254.9916,164.0157"/>
					<path fill="#1A1A1A" d="M1476.6616,349.6453c49.2478,64.1647,50.1886,65.3905,72.2623,102.4106
						c15.2438,28.0987,34.8361,65.9951,48.1631,95.0521c-15.1448-28.14-15.736-29.2385-33.9432-48.9698
						c-38.2494-74.0963-52.5613-101.8212-118.9415-179.9069c9.0425,7.8481,20.9154,18.5798,29.0646,27.3519L1476.6616,349.6453"/>
					<path fill="#8C6239" d="M1642.0492,688.1868c14.822,83.8705,15.1052,85.4728,17.481,130.4984l0.0005,0.0089l-1.2057,7.6767
						c-9.767-78.8415-13.4215-108.3417-49.6127-200.3019c8.7091-8.5109,11.8035-16.8926,9.0286-24.9907
						C1625.4771,627.0828,1636.5636,661.6161,1642.0492,688.1868"/>
					<path fill="#C1272D" d="M1604.6089,565.4365l13.132,35.6415c2.7749,8.0981-0.3195,16.4799-9.0286,24.9907
						c-25.5345-27.3057-45.7032-48.8735-110.8048-88.7727c35.141-13.0967,57.2084-26.3763,65.1796-39.2181l0.0568,0.0601
						c22.6133,26.5316,24.4604,28.6989,33.9432,48.9698L1604.6089,565.4365"/>
					<path fill="#534741" d="M1611.6726,995.8995c-20.2549-29.5934-36.2533-52.9681-96.99-99.6353
						c38.4539,30.9875,71.6638,57.7493,97.0177,99.5919L1611.6726,995.8995"/>
					<polyline fill="#534741" points="1581.8035,1206.5692 1597.8651,1170.1594 1597.9126,1170.0555 1581.9113,1206.3452 
						1581.8035,1206.5692 					"/>
					<path fill="#22B573" d="M1630.8761,1054.5454c-21.129,46.7217-39.3766,87.072-98.1913,154.8325
						c37.2935-77.5709,52.7297-109.6785,78.9878-213.4785l0.0277-0.0434c23.3455-50.6025,43.5073-94.3043,46.6246-169.4854
						C1657.7631,872.5161,1656.447,980.5802,1630.8761,1054.5454"/>
					<polyline fill="#FF7BAC" points="1590.9539,1186.8888 1581.9113,1206.3452 1597.9126,1170.0555 1606.1531,1150.6301 
						1590.9539,1186.8889 					"/>
					<path fill="#CCCCCC" d="M1633.3708,1067.7661c-7.7771,24.9834-18.0814,58.3451-27.2178,82.864l-8.2405,19.4254l-0.0475,0.1039
						c-7.9713,12.8419-30.0389,26.1216-65.1803,39.2185c37.6088-45.7916,70.0887-85.3385,98.1913-154.8325
						c5.1995-5.0812,8.3977-10.1163,9.5404-15.0726L1633.3708,1067.7661"/>
					<path fill="#00FFFF" d="M1656.5646,941.3412c2.2151-36.7382,3.5527-85.8469,2.9661-122.6472l-1.2057,7.6767
						c-1.0862,89.1895-1.4926,122.5617-27.4489,228.1747c5.1995-5.0812,8.3977-10.1163,9.5404-15.0726
						C1645.9276,1010.1509,1653.8315,971.0512,1656.5646,941.3412"/>
					<path fill="#754C24" d="M1454.3307,1396.188c-54.2999,55.8329-56.4196,58.0123-91.6306,86.717l-23.5972,18.3394
						c-10.3358,6.5123-13.1138,8.2626-32.5104,16.0953c63.0826-48.8892,89.1934-69.1249,156.8717-146.2576
						c13.9762-6.8143,23.6899-13.626,28.9413-20.3135L1454.3307,1396.188"/>
					<polyline fill="#534741" points="817.4761,71.0494 819.5981,70.2897 819.5981,70.2897 817.4761,71.0494 					"/>
					<path fill="#B3B3B3" d="M1041.1267,92.9315c-2.4351,3.9229-9.1761,7.9794-19.9109,11.9802
						c-69.9452-21.8473-98.8964-30.8902-197.1387-34.6016c0.1766-0.0861,0.2656-0.1722,0.2602-0.2542
						C925.3072,69.5831,955.6982,72.7899,1041.1267,92.9315"/>
					<path fill="#009245" d="M850.8344,66.8014c37.0593-1.5195,57.4733-2.3566,103.6011,2.6968
						c-67.1769-2.7935-79.2815-3.2968-134.8373,0.7916c0,0,0,0,0,0C830.0524,68.8574,840.4662,67.6963,850.8344,66.8014"/>
					<path fill="#009245" d="M1026.9451,77.4322c48.3689,11.6808,62.9668,15.2061,120.4038,35.6963
						c6.2405,2.3001,11.0009,4.7176,14.3252,7.2255c-76.0876-27.3982-107.5814-38.7387-207.2386-50.8558
						c-4.3037-1.6466-5.4604-2.0892-12.5896-3.7523C970.7556,67.5967,999.1627,71.5306,1026.9451,77.4322"/>
					<path fill="#29ABE2" d="M941.8459,65.7458c6.2982,1.5048,7.7946,1.8623,12.5896,3.7523
						c-33.0732-2.9252-61.6362-5.4515-103.6011-2.6968C881.6178,64.1445,911.9997,63.835,941.8459,65.7458"/>
					<path fill="#736357" d="M1161.6741,120.354c-31.6478-9.3904-56.6454-16.8075-120.5474-27.4224
						c-79.2436-17.5322-112.0436-24.789-216.7894-22.8756c40.3002-1.5255,78.3653-2.9663,130.0981-0.5578
						C1033.2518,80.1227,1065.875,84.5203,1161.6741,120.354"/>
					<path fill="#00A99D" d="M1163.0392,138.1287c-39.7137-10.5715-71.082-18.9216-141.8234-33.2169
						c10.7347-4.0008,17.4758-8.0573,19.9109-11.9802c40.042,7.0566,77.8633,13.7218,120.5474,27.4224
						C1169.0656,125.9301,1169.3584,131.9533,1163.0392,138.1287"/>
					<path fill="#00FF00" d="M1280.5033,194.8595c-5.0219,8.0905-18.9246,16.4566-41.0636,24.7077
						c-15.7883-26.9464-29.4236-50.2182-76.4005-81.4386c6.3192-6.1754,6.0264-12.1986-1.3651-17.7747
						C1201.0389,139.1452,1238.2207,156.8943,1280.5033,194.8595"/>
					<path fill="#1B1464" d="M1288.4352,184.0845c64.933,44.5996,66.1735,45.4517,98.8896,73.8983
						c34.4847,32.7256,38.0896,36.1465,56.8774,60.2484c-57.0042-52.2299-78.3336-71.7729-163.699-123.3717
						c-30.1094-24.9649-56.1128-46.5253-118.8292-74.5056c28.4692,12.0337,65.8718,29.4475,93.3175,43.6617L1288.4352,184.0845"/>
					<path fill="#F7931E" d="M1239.4397,219.5673c-46.9641-16.2617-72.8342-25.2195-157.3389-51.4305
						c-10.4958-21.838-19.5604-40.698-60.885-63.2251c42.7964,8.8748,87.0498,18.0516,141.8234,33.2169
						C1191.7911,159.0027,1218.9486,178.719,1239.4397,219.5673"/>
					<path fill="#00FFFF" d="M1021.2158,104.9118c-75.46-19.7353-106.6938-27.904-197.5672-34.4421l-4.0505-0.1799c0,0,0,0,0,0
						l4.479,0.0204C901.7178,74.3853,933.8543,76.072,1021.2158,104.9118"/>
					<path fill="#FF1D25" d="M824.3373,70.056l-4.7392,0.2338c0,0,0,0,0,0c71.3628-3.6646,82.3311-4.2278,134.8373-0.7916
						C920.7361,68.3293,885.8895,67.1207,824.3373,70.056"/>
					<path fill="#22B573" d="M824.0771,70.3102l-4.479-0.0204c0,0,0,0,0,0l4.7392-0.2338
						C824.3428,70.1379,824.2538,70.224,824.0771,70.3102"/>
					<polyline fill="#2E3192" points="819.5981,70.2897 819.5981,70.2897 820.0397,70.9925 819.5981,70.2897 					"/>
					<polyline fill="#D9E021" points="820.0397,70.9925 819.5981,70.2897 819.5981,70.2897 820.0397,70.9925 					"/>
					<path fill="#666666" d="M914.9429,93.2095c-40.7647-9.4154-70.2179-16.2181-93.2941-22.3657l-2.0506-0.554c0,0,0,0,0,0l0,0
						C877.314,79.1518,879.567,79.4977,914.9429,93.2095"/>
					<path fill="#4D4D4D" d="M1082.1008,168.1368c-69.2235-36.6048-94.5833-49.4017-167.158-74.9273
						c-19.8378-10.157-38.5755-19.7506-91.2943-22.7399c72.3391,6.0423,102.2811,8.5433,197.5672,34.4422
						C1046.0769,120.1754,1069.5591,134.5925,1082.1008,168.1368"/>
					<path fill="#603813" d="M823.6486,70.4696c32.6818,2.9179,63.551,5.674,91.2943,22.7399
						c-52.2591-17.5964-54.2991-18.2832-95.3447-22.9198c0,0,0,0,0,0L823.6486,70.4696"/>
					<path fill="#006837" d="M627.5364,768.1755c-84.3284,0.4366-164.3982-1.5155-236.1784-5.8954
						c33.5837-73.9851,47.4844-104.6085,101.3054-201.6257c68.1676,2.5684,142.6095,2.985,219.7354,1.2846
						C667.0833,670.1373,657.653,692.6537,627.5364,768.1755"/>
					<path fill="#333333" d="M1227.786,596.9801c-41.0402-59.1747-61.6399-88.8769-129.7164-177.3958
						c35.6624-39.5318,63.8306-70.7563,82.0854-119.8446c64.5175,59.1815,87.9923,81.3469,152.2618,153.5474
						C1310.5376,495.1561,1291.6421,531.3156,1227.786,596.9801"/>
					<path fill="#29ABE2" d="M1400.261,921.6979c-42.6398,8.0345-90.1959,15.7068-142.4109,22.8607
						c-33.2615,4.5571-67.3188,8.7538-101.9269,12.588c29.7823-102.4567,38.5156-135.7215,55.9478-227.3985l0.1575,0.1041
						c6.6802-0.877,13.3298-1.7687,19.9468-2.6753c75.678-10.3685,141.1913-21.8682,195.6938-33.9858
						C1424.5781,778.3171,1423.4216,810.1689,1400.261,921.6979"/>
					<path fill="#666666" d="M1514.6826,896.2642c-25.0432-75.7382-35.4089-107.0872-87.0135-203.073
						c30.2084-47.6174,56.2974-88.7412,70.2384-155.8951c44.9902,69.3485,63.6123,98.0527,99.8317,189.3353
						C1582.0565,776.3121,1568.5126,819.218,1514.6826,896.2642"/>
					<path d="M1563.087,498.0779c-38.2311-74.0733-52.536-101.7895-118.8848-179.8467
						c0.7001,10.5543-10.7562,21.6392-33.5062,32.7316c41.4775,66.9566,56.9973,92.0099,87.2114,186.3333
						C1533.0485,524.1993,1555.1158,510.9198,1563.087,498.0779"/>
					<path fill="#808080" d="M1497.9075,537.2961c-51.1444-69.0862-70.7406-94.3492-142.3817-165.8066
						c-37.4143-64.5709-51.4137-88.7315-116.0861-151.9222c73.303,48.3947,99.8953,66.7856,171.2563,131.3955
						C1452.1736,417.9194,1467.6934,442.9727,1497.9075,537.2961"/>
					<path fill="#2E3192" d="M1332.4169,453.287c54.9049,25.1383,106.7649,48.8825,165.4906,84.0091
						c-51.1444-69.0862-70.7406-94.3492-142.3817-165.8066c-50.6586-22.0681-81.2358-35.3882-175.3707-71.7498
						c23.2281,21.3071,84.9299,77.9059,125.3805,123.3486C1313.6,432.1479,1322.6624,446.0786,1332.4169,453.287"/>
					<path fill="#D4145A" d="M1427.6691,693.1912c-54.584-28.6541-94.0217-49.357-199.8831-96.2111
						c40.6234-43.9922,75.707-81.9852,104.6309-143.6931c54.9049,25.1383,106.7649,48.8824,165.4906,84.0091
						C1486.2272,582.6691,1476.1396,621.8546,1427.6691,693.1912"/>
					<path fill="#754C24" d="M1355.5258,371.4894c-50.6586-22.0681-81.2358-35.3882-175.3707-71.7498
						c-29.8453-55.8948-42.1987-79.0304-98.0542-131.6028c49.6705,15.4998,101.0321,31.5273,157.3389,51.4305
						C1291.2493,271.7686,1310.635,291.3009,1355.5258,371.4894"/>
					<path fill="#0000FF" d="M917.8178,273.9876c-44.1127-23.2367-82.2098-43.3047-121.7515-73.9102
						c28.6979-22.9378,53.4822-42.7475,69.2027-68.7785c28.5505,14.7381,53.2076,27.4663,120.4261,53.2279
						C973.5529,209.0326,963.0664,230.1966,917.8178,273.9876"/>
					<path fill="#00FFFF" d="M724.3887,201.6598c-37.7004,0.1952-73.4968-0.6775-105.5874-2.6356
						c51.3727-41.7799,72.6365-59.0732,130.5173-94.7911c13.936,0.5244,29.1531,0.6093,44.9185,0.2617
						C770.236,137.4515,759.2818,152.4931,724.3887,201.6598"/>
					<path fill="#FF1D25" d="M794.2371,104.4948c-0.7844-5.5263-1.5698-13.9516,1.6152-18.5354
						c4.4911-6.4636,10.3518-10.5046,21.6238-14.9099l2.1221-0.7597c0,0,0,0,0,0l0.4415,0.7028
						c0.4036,4.0054-0.6996,9.853-3.1559,13.0424C811.3098,91.2722,803.7992,97.4481,794.2371,104.4948"/>
					<path fill="#FF1D25" d="M796.0663,200.0774c-7.4047-42.4916-10.4696-60.0794-1.8293-95.5826
						c16.2009-12.8242,30.1924-23.8995,25.8026-33.5022c11.26,16.5571,16.2064,23.5481,45.2294,60.3064
						C852.5929,149.4552,841.6454,165.1355,796.0663,200.0774"/>
					<path fill="#ED1E79" d="M865.269,131.2989c28.5505,14.7381,53.2076,27.4663,120.4261,53.2279
						c-50.3871-40.5941-68.4799-54.8769-113.6259-85.0971c-23.061-9.7061-44.8431-18.874-52.0296-28.4371
						C841.2139,102.1276,865.173,131.2197,865.269,131.2989"/>
					<path d="M872.0693,99.4296c-23.061-9.7061-44.8431-18.874-52.0296-28.4371c0.5461-0.0353,1.0907-0.0849,1.6091-0.1487
						c23.1723,5.9777,31.8427,8.2144,93.2941,22.3657c-7.4819,1.4098-15.8265,2.756-24.9886,4.0113
						C884.1179,98.0205,878.1418,98.7569,872.0693,99.4296"/>
					<path fill="#666666" d="M821.6487,70.8438c-0.5184,0.0638-1.0629,0.1135-1.6091,0.1487l-0.4415-0.7028c0,0,0,0,0,0
						L821.6487,70.8438"/>
					<path fill="#808080" d="M985.6952,184.5267c-50.3871-40.5941-68.4799-54.8769-113.6259-85.0971
						c6.0726-0.6728,12.0486-1.4092,17.8849-2.2088c9.1621-1.2553,17.5067-2.6015,24.9886-4.0113
						c60.5234,21.9381,85.5749,31.0186,167.158,74.9273c-24.3662,5.4174-53.655,10.5585-87.4881,15.1939
						C991.6545,183.736,988.6817,184.1347,985.6952,184.5267"/>
					<path fill="#FCEE21" d="M1180.155,299.7397c-29.8453-55.8948-42.1987-79.0304-98.0542-131.6028
						c-24.3662,5.4174-53.655,10.5585-87.4881,15.1939c-2.9582,0.4053-5.931,0.804-8.9175,1.196
						c20.3206,46.4677,27.9239,63.8546,35.6918,138.2471c22.4879-2.4914,44.6182-5.2184,66.2311-8.1796
						C1121.5468,309.9458,1152.4481,304.9604,1180.155,299.7397"/>
					<path fill="#FFFF00" d="M1098.0162,419.6688c57.6416,75.2195,78.3293,102.5789,129.7698,177.3113
						c-41.0402-59.1747-61.6399-88.8769-129.7164-177.3958L1098.0162,419.6688"/>
					<path fill="#1B1464" d="M1098.0696,419.5843l-0.0533,0.0845c-66.7408,8.2164-136.8617,14.6099-207.1813,19.1495
						c46.6124-36.6663,86.8683-68.3324,130.5521-116.0444c22.4879-2.4914,44.6182-5.2184,66.2311-8.1796
						c33.9287-4.6485,64.8301-9.6339,92.537-14.8546c-7.5078,17.1187-18.1376,39.8834-28.7007,55.3055
						C1135.6127,378.1739,1115.199,397.5206,1098.0696,419.5843"/>
					<path fill="#CCCCCC" d="M1021.387,322.7739c-7.1453-59.9981-9.8188-82.4478-35.6918-138.2471
						c-12.1423,24.5059-22.6288,45.6699-67.8774,89.4609c-5.2378,59.3422-7.8093,82.0624-26.9829,164.8307
						C937.4473,402.152,977.7032,370.4859,1021.387,322.7739"/>
					<path fill="#ED1E79" d="M927.4266,62.7754l0.6495,0.0543c24.5228,2.3591,25.9908,2.5003,39.8495,4.3623
						c34.5946,5.2805,37.4204,5.7119,59.0195,10.2402c-40.4457-8.5915-82.2152-13.013-124.932-12.9079
						c-23.5549,1.0106-54.9938,2.5076-78.4169,5.1935c32.3137-4.2647,62.8353-8.2928,88.5426-7.9246L927.4266,62.7754"/>
					<path fill="#00A99D" d="M902.0132,64.5243c-19.7258,0.0485-39.6536,1.0622-59.7464,3.0763l-18.6705,2.1172
						C847.0787,67.612,878.4409,64.9728,902.0132,64.5243"/>
					<path d="M842.2668,67.6005c-7.5337,0.7552-15.0906,1.6509-22.6686,2.6892l3.9981-0.572L842.2668,67.6005"/>
					<path fill="#FF931E" d="M823.5963,69.7177l-3.9981,0.572c0,0,0,0,0,0l2.8596-0.7009
						C822.8974,69.6168,823.2852,69.6596,823.5963,69.7177"/>
					<path fill="#39B54A" d="M869.6499,60.0642l-1.9649-0.019c-26.5425,2.7061-27.5786,2.8117-48.0869,10.2446c0,0,0,0,0,0
						l2.8596-0.7009C853.9986,62.1097,859.7322,60.9525,869.6499,60.0642"/>
					<path fill="#C1272D" d="M898.2626,60.8847l-8.1017-0.3356c7.7558,0.2793,15.1234,0.6936,21.978,1.244l15.2878,0.9823
						C918.6828,62.131,907.02,61.3086,898.2626,60.8847"/>
					<path fill="#F15A24" d="M874.0394,60.124c4.8367,0.1148,11.2861,0.262,16.1215,0.4251
						c7.7558,0.2793,15.1234,0.6936,21.978,1.244c-19.3418,0.307-36.0459,0.5721-88.5426,7.9246
						c-0.311-0.0581-0.6989-0.101-1.1385-0.1288c31.5409-7.4792,37.2745-8.6364,47.1922-9.5247L874.0394,60.124"/>
					<path fill="#603813" d="M746.2761,68.1933l3.056-0.4357c-0.81,0.1125-1.6135,0.2257-2.4104,0.3396L746.2761,68.1933"/>
					<path fill="#93278F" d="M818.3923,69.6733c0.5392-0.0487,1.0916-0.0832,1.6324-0.1031l-0.4266,0.7195c0,0,0,0,0,0
						L818.3923,69.6733"/>
					<path fill="#ED1E79" d="M863.856,60.0218l3.829,0.0234c-26.5425,2.7061-27.5786,2.8117-48.0869,10.2446c0,0,0,0,0,0
						l0.4266-0.7195C827.3041,63.8377,831.6978,60.3776,863.856,60.0218"/>
					<polyline fill="#009245" points="820.0248,69.5703 819.5981,70.2897 819.5981,70.2897 820.0248,69.5703 					"/>
					<path fill="#006837" d="M749.3322,67.7576l2.0664-0.2864c15.8665-2.0528,15.8665-2.0528,23.6409-2.8862
						c13.8281-1.3888,13.8281-1.3888,20.64-1.9413l5.6446-0.4371c16.1473-0.1784,16.5314,0.3619,19.5209,4.5666
						c-0.246,0.8391-0.5742,1.958-0.8202,2.7971c-0.5408,0.0199-1.0932,0.0544-1.6324,0.1031
						c-17.8114-5.4179-32.3575-6.9313-71.4706-1.5761C747.7187,67.9833,748.5222,67.8701,749.3322,67.7576"/>
					<path fill="#39B54A" d="M814.8297,61.323c12.5314-0.6401,12.5314-0.6401,18.7759-0.8499
						c12.6564-0.3499,12.8983-0.3566,19.3776-0.4193c3.2618-0.0106,7.611-0.0433,10.8729-0.0321
						c-26.5084,0.9354-34.563,1.5605-43.8312,9.5485c0.1492-1.2438,0.3481-2.9022,0.4973-4.146
						c-5.2648-3.5131-5.58-3.7234-19.198-3.2177C805.3751,61.9315,810.7755,61.5471,814.8297,61.323"/>
					<path fill="#B3B3B3" d="M148.595,589.7416c-0.2354-56.93,3.8884-89.4547,30.0517-143.5274
						c44.7679-62.0924,61.5188-85.3257,134.5034-151.9152c-21.538,34.8269-40.1388,64.9045-42.3545,119.6136
						C218.3646,477.5697,196.6627,503.9182,148.595,589.7416"/>
					<path d="M680.8173,91.7403C757.9884,75.304,762.6081,74.32,819.5981,70.2897c0,0,0,0,0,0
						c-72.8773,11.6097-77.2399,12.3047-124.757,27.9157C687.1743,96.2873,682.5661,94.0919,680.8173,91.7403"/>
					<path fill="#1A1A1A" d="M618.8013,199.0242c-0.4432-22.7436-0.826-42.3856,26.1821-69.1974
						c66.3652-29.1246,93.8347-41.1796,171.1724-58.8584c-26.6821,6.8374-51.8844,13.2956-66.8658,33.2636
						c0.0095,0.0004,0.019,0.0007,0.0286,0.0011C699.7252,135.45,681.0669,147.77,618.8013,199.0242"/>
					<path fill="#ED1E79" d="M749.3185,104.2331c-0.0096-0.0004-0.0191-0.0007-0.0286-0.0011
						c12.2466-12.8138,22.8232-23.8801,66.8658-33.2636c0.3849,0.042,0.8333,0.0689,1.3203,0.081
						c-15.0292,7.3481-29.2249,14.2886-23.239,33.4453C778.4716,104.8423,763.2545,104.7575,749.3185,104.2331"/>
					<path fill="#A67C52" d="M816.1558,70.9684l3.4424-0.6787c0,0,0,0,0,0l-2.1221,0.7597
						C816.989,71.0373,816.5406,71.0104,816.1558,70.9684"/>
					<path fill="#FFFF00" d="M694.8412,98.2054c68.1531-19.9674,72.233-21.1627,124.757-27.9157c0,0,0,0,0,0l0,0l-3.4424,0.6787
						C788.1196,76.7335,753.2276,83.9083,694.8412,98.2054"/>
					<path fill="#4D4D4D" d="M463.3006,271.0502c2.9374-30.1007,5.2574-53.876,37.3932-89.8541
						c45.4789-17.1301,62.4958-23.5396,144.1906-51.3214l0.099-0.0478c-16.1266,18.638-30.054,34.7344-26.1821,69.1974
						C567.0632,223.244,515.1199,247.0056,463.3006,271.0502"/>
					<path fill="#1B1464" d="M644.9833,129.8268c71.2849-31.2835,97.356-41.9845,171.1724-58.8583
						c-28.0362,5.7651-62.9282,12.9399-121.3146,27.237c-79.1741,26.7387-108.3141,37.3732-194.1474,82.9906
						c45.4789-17.1301,62.4958-23.5396,144.1906-51.3214L644.9833,129.8268"/>
					<path fill="#009245" d="M313.15,294.299c56.6978-55.1124,80.1657-77.9241,166.4665-129.8555
						c0.0054,5.9745,6.8684,11.6573,21.0773,16.7525c-57.8442,45.0765-81.7867,63.7342-135.6111,137.0443
						C336.6908,311.1371,319.6259,303.0074,313.15,294.299"/>
					<path fill="#D9E021" d="M365.0826,318.2404c43.6455-57.4902,61.711-81.2861,135.6111-137.0443
						c-19.5404,24.7192-36.4161,46.0674-37.3931,89.8542c-35.7117,57.9569-49.074,79.6427-72.5569,164.6664
						C354.7872,357.006,362.0119,325.8994,365.0826,318.2404"/>
					<path fill="#D9E021" d="M270.7955,413.9126c3.8694-36.6701,7.2111-68.3395,42.3546-119.6135
						c6.4759,8.7084,23.5407,16.838,51.9326,23.9413c-1.3141,33.789-2.449,62.9702,25.6612,117.4763
						c-32.439-3.5399-61.3753-7.9115-85.9121-13.1237C291.8976,419.8456,280.5641,416.9449,270.7955,413.9126"/>
					<path fill="#0071BC" d="M492.6634,560.6545c-39.0217-38.1515-72.722-71.1003-101.9196-124.9378
						c49.5587,5.408,107.2928,8.8747,170.004,10.4308c38.9637,34.9875,69.7396,62.6229,151.6511,115.7916
						C635.2729,563.6395,560.8311,563.2228,492.6634,560.6545"/>
					<path fill="#FBB03B" d="M390.7438,435.7167c20.0825-68.6911,27.5968-94.3934,72.5569-164.6664
						c141.0241-65.2036,141.0241-65.2036,155.5006-72.0261c-27.4233,48.4646-37.6843,66.5987-52.0861,141.5335
						C508.1342,372.4231,449.2989,403.8036,390.7438,435.7167"/>
					<path fill="#9E005D" d="M566.7151,340.5577c12.6658-60.5128,17.405-83.155,52.0861-141.5335
						c32.0906,1.9581,67.887,2.8308,105.5874,2.6356c-3.8908,57.1301-2.7429,75.431,8.773,139.871
						C674.7398,342.8188,618.3512,342.5032,566.7151,340.5577"/>
					<path fill="#D9E021" d="M712.3989,561.9391c-53.1801-35.5364-99.1081-66.2267-151.6511-115.7916
						c57.0599-33.2728,110.9554-64.7003,172.4139-104.6167c41.1672,29.097,73.6835,52.0797,157.6732,97.2875
						C841.3848,475.4462,805.6563,501.9105,712.3989,561.9391"/>
					<path fill="#603813" d="M560.7477,446.1475c57.0599-33.2728,110.9554-64.7003,172.4139-104.6167
						c-58.4219,1.288-114.8105,0.9724-166.4465-0.9731c-58.5809,31.8654-117.4162,63.2459-175.9714,95.159
						C440.3025,441.1247,498.0365,444.5913,560.7477,446.1475"/>
					<path fill="#1B1464" d="M733.1617,341.5308c-10.0305-59.8514-13.7836-82.2461-8.773-139.871
						c25.1569-35.3899,39.0145-54.8844,69.8484-97.165c-6.0229,28.9128-8.5159,40.8801,1.8293,95.5826
						C777.8147,244.7446,770.2601,263.2329,733.1617,341.5308"/>
					<path fill="#999999" d="M890.8349,438.8183c-54.611-30.1146-101.7746-56.1225-157.6732-97.2875
						c33.4805-71.0154,42.5807-91.0096,62.9047-141.4534c28.6929,20.9413,53.4729,39.0268,121.7515,73.9102
						C912.58,333.3298,910.0085,356.05,890.8349,438.8183"/>
					<path fill="#754C24" d="M145.8964,950.1698c-16.5276-89.182-22.7118-122.5515-18.7024-227.7924
						c36.0909-32.5872,55.9715-50.5378,138.762-103.3633c-2.537,96.4664-0.5303,124.86,15.3369,217.0087l0.0234,0.0334
						C236.4797,868.9949,185.6608,906.3284,145.8964,950.1698"/>
					<path fill="#B3B3B3" d="M391.358,762.2802c-46.1667-43.4409-86.0377-80.9578-125.4019-143.2661
						c41.9644-69.6692,59.334-98.5062,124.7877-183.2974c21.8721,36.4622,40.7615,67.952,101.9196,124.9378
						C444.3012,648.6318,429.1556,677.7824,391.358,762.2802"/>
					<path fill="#534741" d="M265.9561,619.014c41.9644-69.6692,59.334-98.5062,124.7877-183.2974
						c-32.439-3.5399-61.3753-7.9115-85.9121-13.1237c-12.934-2.7474-24.2675-5.6481-34.0362-8.6805
						c-52.4309,63.6571-74.1328,90.0056-122.2005,175.8291c15.7187,7.307,37.9703,14.1356,67.0425,20.3111
						C231.0067,613.3175,247.8318,616.3041,265.9561,619.014"/>
					<path fill="#C7B299" d="M562.1629,117.6019l34.0877-12.8165c28.5366-9.4721,28.5366-9.4721,44.0913-13.8751
						c20.7177-5.1818,48.3704-12.1042,69.3806-15.931c24.6195-2.5431,47.8736-4.9452,105.4824-4.7212
						c-77.5635,3.1627-109.6681,4.4718-206.3441,32.1884C578.3146,111.2791,576.486,111.8078,562.1629,117.6019"/>
					<polyline fill="#4D4D4D" points="746.2761,68.1933 746.9218,68.0972 744.4233,68.4642 746.2761,68.1933 					"/>
					<path fill="#FF1D25" d="M744.4233,68.4642l2.4984-0.367c-14.6851,2.0991-27.1514,4.4335-37.1992,6.8821
						c-20.9036,4.3715-48.7972,10.2392-69.3806,15.931C662.254,85.0371,698.9282,75.2071,744.4233,68.4642"/>
					<path fill="#808080" d="M709.7225,74.9793c10.0478-2.4486,22.5142-4.783,37.1992-6.8821
						c12.0359-0.8496,23.4042-1.652,69.1472,1.9078c-0.3707,0.0811-0.6609,0.1669-0.864,0.2532
						C779.1158,70.4278,745.0281,70.588,709.7225,74.9793"/>
					<path fill="#998675" d="M816.069,70.005c-27.7998-1.9501-54.0579-3.7921-69.1472-1.9078
						c33.7903-2.0968,39.879-2.4746,72.6764,2.1925c0,0,0,0,0,0L816.069,70.005"/>
					<path fill="#39B54A" d="M746.9218,68.0972c37.4694-4.1841,56.6808-4.9495,71.4706,1.5761l1.2058,0.6164c0,0,0,0,0,0
						C778.7283,65.8841,772.4468,65.2069,746.9218,68.0972"/>
					<path fill="#B3B3B3" d="M815.205,70.2582c0.2031-0.0863,0.4933-0.1721,0.864-0.2532l3.5292,0.2847c0,0,0,0,0,0L815.205,70.2582
						"/>
					<path fill="#FFFF00" d="M680.8036,87.231c39.1354-8.6232,76.1003-16.7682,134.4013-16.9728l4.3932,0.0316c0,0,0,0,0,0
						C739.8627,76.4879,735.0895,76.8589,680.8036,87.231"/>
					<path fill="#736357" d="M562.0962,117.6288c26.689-9.7697,27.1989-9.9563,46.591-15.1273l0.1737-0.0549
						c-30.5463,8.8325-32.3749,9.3613-46.698,15.1554L562.0962,117.6288"/>
					<path fill="#00FFFF" d="M479.6164,164.4435c71.8673-36.9287,101.6141-52.2139,201.1872-77.2125
						c72.498-12.1833,81.8128-13.7487,138.7945-16.9413c0,0,0,0,0,0c-76.5174,7.5202-84.5161,8.3064-138.7808,21.4506
						C599.951,113.3334,569.693,121.413,479.6164,164.4435"/>
					<path fill="#998675" d="M500.6938,181.196c71.3842-37.1311,100.9311-52.5001,194.1474-82.9906
						c-7.6669-1.9182-12.2751-4.1135-14.0239-6.4651c-80.8663,21.5931-111.1243,29.6727-201.2009,72.7032
						C479.6219,170.418,486.4849,176.1009,500.6938,181.196"/>
					<path fill="#FF931E" d="M608.6872,102.5015c-40.5999,15.0503-78.9481,29.2659-129.0707,61.942
						c71.8673-36.9287,101.6141-52.2139,201.1872-77.2125c39.1354-8.6232,76.1003-16.7682,134.4013-16.9728
						c-77.5635,3.1627-109.6681,4.4718-206.3441,32.1884L608.6872,102.5015"/>
					<path fill="#8C6239" d="M178.6467,446.2143c44.7679-62.0924,61.5188-85.3257,134.5034-151.9152
						c-34.0935,22.8507-48.2052,32.3089-72.0183,59.3952c-14.0665,18.5697-33.0765,43.1649-46.2296,62.3924
						c-10.2511,16.6755-24.4661,38.5922-34.0299,55.6712C166.0322,463.9776,172.9916,453.6423,178.6467,446.2143"/>
					<path fill="#2E3192" d="M241.1317,353.6942l31.3313-36.0392c54.8364-55.1854,56.977-57.3396,92.6477-85.7867l34.971-26.0976
						c22.9763-14.7318,35.6328-22.8468,79.5347-41.3272c-67.9103,42.0912-96.0193,59.5133-166.4664,129.8555
						C277.3318,318.3057,263.7914,327.9199,241.1317,353.6942"/>
					<path fill="#FF931E" d="M400.0818,205.7707c21.4238-14.0109,50.1247-32.5241,72.2649-45.373
						c51.9003-26.928,55.0071-28.54,89.7495-42.769c26.689-9.7697,27.1989-9.9563,46.591-15.1273
						c-40.5999,15.0503-78.9481,29.2659-129.0707,61.942C445.356,179.3314,428.1594,186.8042,400.0818,205.7707"/>
					<path fill="#C1272D" d="M65.9742,913.325c-5.0403-106.6426-3.2014-136.526,14.0544-228.395
						c0.0121,13.3636,15.3634,26.0752,47.1458,37.4721l0.0197-0.0247c-2.6855,108.1436,0.8843,137.677,18.7024,227.7924
						C102.2024,939.2381,75.9403,926.7269,65.9742,913.325"/>
					<path fill="#808080" d="M80.0285,684.93l4.9058-22.4151l4.9545-18.5151c25.6933-79.4337,25.6933-79.4337,43.6924-118.5513
						l27.2909-53.6907c5.16-7.7802,11.9279-18.2652,17.7744-25.5435c-18.2118,42.4604-33.94,79.1305-30.0517,143.5274
						C119.0692,618.5524,93.5699,643.4341,80.0285,684.93"/>
					<path fill="#FF0000" d="M127.194,722.3774l-0.0196,0.0247c-31.7825-11.3969-47.1337-24.1085-47.1459-37.4721
						c11.9195-29.1472,21.3343-52.1694,68.5665-95.1884c15.7187,7.307,37.9703,14.1356,67.0425,20.3111
						c15.3691,3.2648,32.1943,6.2513,50.3185,8.9613C227.5397,644.0443,156.0323,690.635,127.194,722.3774"/>
					<path fill="#93278F" d="M70.6662,731.0308c4.1933-20.5727,9.1724-48.1479,14.2682-68.5159L80.0285,684.93L70.6662,731.0308"/>
					<path fill="#666666" d="M534.6859,1372.981c-56.1418-75.1334-74.0517-100.9536-121.1576-182.225
						c71.7798,4.3799,151.8492,6.332,236.1771,5.8954c35.4991,63.7798,51.7011,92.8892,104.7186,177.6143
						C677.2971,1375.9661,602.8543,1375.5494,534.6859,1372.981"/>
					<path fill="#B3B3B3" d="M1242.2715,1500.5354c-20.0646-19.1823-30.1357-28.8105-91.4148-60.7173
						c46.9087-64.9298,65.4838-91.4226,111.7041-170.7556c44.6019,25.0277,83.1215,46.6423,116.1371,78.9015
						c-48.2073,62.1414-68.1609,87.8624-136.4264,152.5715"/>
					<path fill="#009245" d="M1155.8815,1594.4214c41.0348-30.2922,56.3888-41.6267,86.39-93.8859
						c51.6576-29.8943,100.4504-58.1306,166.0233-108.927c-31.2183,53.2238-42.8993,73.1385-101.7023,125.7312
						C1263.9493,1542.6095,1227.1213,1564.4332,1155.8815,1594.4214"/>
					<path fill="#B3B3B3" d="M1408.2948,1391.6085c-47.291,35.3019-84.6444,63.1855-166.0233,108.927
						c57.9486-55.9346,79.0183-77.2228,136.4264-152.5715c50.2542-38.8044,97.7212-75.4569,153.9869-138.5861
						C1461.842,1334.5208,1422.0953,1378.5061,1408.2948,1391.6085"/>
					<path fill="#603813" d="M1530.8077,1296.9436c-11.4667,16.1859-26.2797,38.1244-38.4022,53.8251
						c-5.2513,6.6875-14.9651,13.4991-28.9413,20.3135c35.046-58.5082,48.1593-80.4004,69.2206-161.7042
						c35.1414-13.0969,57.209-26.3766,65.1803-39.2185l-16.0616,36.4098
						C1567.2274,1234.0768,1547.9785,1270.9764,1530.8077,1296.9436"/>
					<path fill="#1B1464" d="M1306.5925,1517.3397c46.9525-43.4125,64.5209-59.6563,101.7023-125.7312
						c52.2002-64.1245,73.8065-90.6665,124.39-182.2306c-18.2424,65.9607-25.0682,90.6414-69.2206,161.7042
						C1409.2198,1431.5675,1386.7673,1456.6031,1306.5925,1517.3397"/>
					<path fill="#7AC943" d="M1234.1942,1158.3282l-0.1427,0.1029c-23.2256-68.1228-32.839-96.3198-78.1283-201.2845
						c34.608-3.8342,68.6654-8.0309,101.9269-12.588c52.215-7.1539,99.7711-14.8262,142.4109-22.8607
						c26.9186,80.843,36.9908,111.0921,49.5728,199.9694c-54.5023,12.1176-120.0153,23.6172-195.6929,33.9857
						C1247.524,1156.5596,1240.8745,1157.4513,1234.1942,1158.3282"/>
					<path fill="#736357" d="M1378.6979,1347.964c-25.7047-22.936-46.0078-41.0522-116.1371-78.9015
						c59.8545-41.5208,116.3895-80.7386,187.2729-147.3951c34.2222,27.2008,63.7773,50.6923,82.8511,87.7106
						C1491.5447,1253.3022,1459.0498,1287.9965,1378.6979,1347.964"/>
					<path fill="#0071BC" d="M1449.8337,1121.6674c-11.7412-76.2561-17.0088-104.913-49.5728-199.9694
						c18.8118-94.7531,24.8831-129.452,27.4081-228.5068c45.8835,87.1489,59.4138,116.3335,87.0135,203.073
						C1497.8788,981.6398,1490.9236,1016.978,1449.8337,1121.6674"/>
					<path fill="#FBB03B" d="M1532.6848,1209.3779c-17.4963-28.9309-30.8589-48.6454-82.8511-87.7106
						c31.7188-83.1394,44.8477-117.552,64.8489-225.4032c38.4449,31.0037,71.6472,57.7795,96.99,99.6353
						C1589.2112,1080.4139,1580.8068,1112.037,1532.6848,1209.3779"/>
					<path fill="#2E3192" d="M1155.9232,957.1467c-178.6113-90.6678-178.6113-90.6678-229.1656-117.1207
						c33.1824-108.5949,41.1173-136.9023,60.6454-216.3494c70.3071,34.2871,99.4082,48.479,224.468,106.0717
						C1195.9967,810.368,1189.4261,843.7376,1155.9232,957.1467"/>
					<path fill="#FF931E" d="M1212.0284,729.8522l-0.1575-0.1041c-75.6298-34.9054-147.0652-67.8749-224.468-106.0717
						c73.7999-5.9988,146.4893-13.7321,215.4037-23.174c8.462-1.1594,16.7889-2.3338,24.9794-3.5225
						c65.8442,29.5236,128.0369,57.4099,199.8831,96.2111c-54.5026,12.1176-120.0159,23.6172-195.6938,33.9858
						C1225.3583,728.0836,1218.7086,728.9753,1212.0284,729.8522"/>
					<path fill="#999999" d="M987.403,623.6765c-48.6802-91.1313-61.764-115.6246-96.5681-184.8582
						c70.3196-4.5396,140.4405-10.9331,207.1813-19.1495c57.6416,75.2195,78.3293,102.5789,129.7698,177.3113
						c-8.1904,1.1887-16.5173,2.363-24.9794,3.5225C1133.8922,609.9444,1061.2029,617.6777,987.403,623.6765"/>
					<path fill="#FF1D25" d="M787.8655,764.636c-38.7148-95.144-49.4728-123.0676-75.4666-202.6969
						c58.119-37.8282,113.0146-73.5585,178.436-123.1208c29.7666,58.8643,39.7943,78.6941,96.5681,184.8582
						C929.7598,666.7697,891.6785,695.2386,787.8655,764.636"/>
					<path fill="#3FA9F5" d="M926.7576,840.0259c33.1824-108.5949,41.1173-136.9023,60.6454-216.3494
						c-57.6432,43.0931-95.7244,71.5621-199.5375,140.9595c-39.4951,112.8525-48.8791,139.6663-75.5098,221.3768
						C918.4521,847.2745,926.5165,840.3579,926.7576,840.0259"/>
					<path fill="#FFFF00" d="M712.3557,986.0128c-42.6584-101.4055-54.6558-131.3218-84.8193-217.8372
						c27.5046-68.6145,34.0397-84.9173,84.8624-206.2365c23.144,69.6719,32.7236,98.51,75.4666,202.6969
						C748.3704,877.4885,738.9864,904.3022,712.3557,986.0128"/>
					<path fill="#C69C6D" d="M754.424,1374.2656c-50.7684-81.5544-65.4485-106.4536-104.7186-177.6143
						c18.8017-68.9072,25.8368-94.6904,62.6503-210.6385c32.6068,73.5159,46.1032,103.9449,97.6779,207.099
						C778.1133,1289.8673,771.357,1311.8767,754.424,1374.2656"/>
					<path fill="#603813" d="M940.6126,1109.2684c-68.3536-34.8893-139.0344-70.9664-228.2569-123.2556
						c99.2093-66.7851,153.8587-103.5736,214.4019-145.9869c47.5049,24.6595,47.5049,24.6595,229.1656,117.1207
						C1093.3943,1004.2599,1048.2162,1038.2999,940.6126,1109.2684"/>
					<path fill="#7AC943" d="M1022.1754,1295.7592c-24.6252-59.3401-32.9209-79.3302-81.4867-186.4647l-0.0761-0.026
						c64.7455-43.1782,131.6953-87.8264,215.3106-152.1218c40.9604,95.7751,52.1947,123.6462,78.1283,201.2845
						C1171.7452,1201.1654,1126.7279,1232.0415,1022.1754,1295.7592"/>
					<path fill="#006837" d="M943.6112,1458.9363c-74.8063-32.9449-128.855-56.7483-189.1872-84.6707
						c16.2673-58.866,22.354-80.8918,55.6096-181.1538c69.8358,34.7712,93.3616,46.4847,212.1418,102.6473
						C994.7451,1353.9836,989.0368,1366.1003,943.6112,1458.9363"/>
					<path fill="#D4145A" d="M810.0336,1193.1118c-47.0185-94.473-60.6031-122.7021-97.6779-207.099
						c68.9905,39.6444,114.5683,65.8351,228.2569,123.2556l0.0761,0.026c40.6036,89.7417,52.8579,116.8262,81.4867,186.4647
						C842.8268,1210.8552,810.0754,1193.1538,810.0336,1193.1118"/>
					<path fill="#666666" d="M1262.5608,1269.0625c59.8545-41.5208,116.3895-80.7386,187.2729-147.3951
						c-54.5023,12.1176-120.0153,23.6172-195.6929,33.9857c-6.6168,0.9065-13.2664,1.7982-19.9467,2.6752l-0.1427,0.1029
						c-62.3063,42.7343-107.3236,73.6104-211.8761,137.328c73.8005-5.9989,146.4906-13.7322,215.4058-23.1742
						C1246.0433,1271.4255,1254.3702,1270.2511,1262.5608,1269.0625"/>
					<path fill="#ED1E79" d="M295.2476,1105.2939c-49.69-42.4753-101.0718-86.3968-149.3512-155.1241
						c31.5755-32.1864,56.5157-57.6092,135.42-114.1136c45.9277,45.202,82.2042,80.9053,174.8846,148.4592
						C397.8042,1025.9286,347.3709,1061.6943,295.2476,1105.2939"/>
					<path fill="#00A99D" d="M649.7054,1196.6514c18.8017-68.9072,25.8368-94.6904,62.6503-210.6385
						c-89.909,1.9822-176.6889,1.4965-256.1548-1.4976c-25.0981,94.8887-32.0452,125.2943-42.6727,206.2407
						C485.3081,1195.1359,565.3774,1197.088,649.7054,1196.6514"/>
					<path fill="#00FFFF" d="M281.3163,836.0562l-0.0234-0.0334c-13.9377-86.2393-19.1528-118.5076-15.3369-217.0087
						c28.7636,42.1044,53.6048,78.467,125.402,143.2661c19.3113,86.3763,27.2151,118.6417,64.8429,222.2352
						C337.2109,895.4264,295.5559,853.2612,281.3163,836.0562"/>
					<path fill="#662D91" d="M456.201,984.5153c-32.7984-92.1323-44.1602-125.8735-64.8429-222.2351
						c71.7802,4.3799,151.85,6.332,236.1784,5.8954c26.7729,75.6721,37.8546,106.9937,84.8193,217.8373
						C622.4467,987.9951,535.6668,987.5093,456.201,984.5153"/>
					<path fill="#2E3192" d="M943.8345,1649.8154c-11.3151-3.8353-11.3151-3.8353-73.9764-23.4547
						c38.2324-18.4893,76.7381-36.3915,115.104-54.5992c32.5143,14.6323,58.1962,26.1898,74.5175,39.0492
						C964.8819,1645.911,943.9328,1649.818,943.8345,1649.8154"/>
					<path fill="#1A1A1A" d="M1059.4796,1610.8107c16.5261-27.0673,22.7097-37.1952,24.0276-87.2416
						c22.4873-2.4913,44.6169-5.2183,66.2294-8.1793c33.928-4.6484,64.8286-9.6337,92.5349-14.8544
						c-25.4941,42.0164-35.0334,57.7377-86.39,93.886c-24.3652,5.4171-53.653,10.5581-87.4846,15.1932
						C1065.4387,1610.02,1062.4661,1610.4186,1059.4796,1610.8107"/>
					<path fill="#0000FF" d="M1150.8567,1439.8181c47.9598-66.3848,65.3428-91.1805,111.7041-170.7556
						c-39.1084,66.1073-55.2958,93.47-111.7715,170.7246L1150.8567,1439.8181"/>
					<path fill="#FF0000" d="M984.9622,1571.7615c-9.7235-35.9271-13.3618-49.37-41.351-112.8252
						c55.6707,24.6866,99.6427,44.1857,139.896,64.6328c-1.9552,40.1067-2.6868,55.1134-24.0276,87.2416
						C1044.7242,1600.5302,1034.9764,1593.7384,984.9622,1571.7615"/>
					<path fill="#F7931E" d="M1150.7893,1439.7871c-66.7399,8.2163-136.8596,14.6096-207.1781,19.1492
						c39.658-81.0602,49.0807-100.3202,78.5642-163.1771c73.8005-5.9989,146.4906-13.7322,215.4058-23.1742
						c8.4622-1.1594,16.7891-2.3339,24.9796-3.5225C1224.5935,1333.241,1207.265,1362.5325,1150.7893,1439.7871"/>
					<path fill="#0071BC" d="M1083.5072,1523.5691c-38.3237-18.9426-54.1864-26.7832-139.896-64.6328
						c70.3185-4.5396,140.4382-10.9329,207.1781-19.1492l0.0674,0.031c40.8094,21.8302,70.2949,37.6029,91.4148,60.7174
						c-27.7063,5.2206-58.6069,10.2058-92.5349,14.8542C1128.1241,1518.3508,1105.9945,1521.0778,1083.5072,1523.5691"/>
					<path fill="#29ABE2" d="M830.7956,1659.7251l-1.354-0.0503c-47.688-4.8782-67.4267-6.8973-136.8416-34.3673
						c32.0892,1.958,67.8843,2.8307,105.5833,2.6355c33.8978,19.6724,47.9285,27.8149,76.5302,32.0072
						C859.3245,1660.2894,844.4579,1660.2167,830.7956,1659.7251"/>
					<path fill="#FF1D25" d="M952.5373,1654.8856l-7.2238,0.8634c-6.0173,0.6003-14.0449,1.3556-20.0692,1.8804l-5.9822,0.4619
						c7.5622-1.8219,17.4829-5.0751,24.5724-8.2759c26.7522-7.8477,57.0738-16.7423,115.6451-39.0048
						C1020.8369,1632.6593,992.9169,1648.4453,952.5373,1654.8856"/>
					<path fill="#0000FF" d="M919.2621,1658.0913c-3.9498,0.2665-9.2162,0.6246-13.168,0.8586
						c-12.5314,0.6401-12.5314,0.6401-18.7759,0.8499l-4.8665,0.1489l-7.7382,0.0015c-7.9619-4.6654-10.941-6.4111-4.8553-33.5895
						c64.9063,20.2346,64.9063,20.2346,73.9764,23.4547C936.6636,1652.8293,926.9742,1657.0768,919.2621,1658.0913"/>
					<polyline fill="#00FF00" points="873.744,1660.1421 874.7135,1659.9502 882.4517,1659.9487 873.744,1660.1421 					"/>
					<path fill="#A67C52" d="M969.5252,1652.8019c-15.8665,2.0529-15.8665,2.0529-23.6409,2.8862l-0.5708,0.0609l7.2238-0.8634
						c6.072-0.6727,12.0474-1.4091,17.8831-2.2086c0.371-0.0508,0.7406-0.1018,1.1089-0.1528L969.5252,1652.8019"/>
					<path fill="#FCEE21" d="M1030.7609,1641.7859c-17.158,3.5424-36.6052,7.5574-59.2316,10.7383
						c-0.3683,0.051-0.7379,0.1021-1.1089,0.1528c-5.8357,0.7996-11.8111,1.5359-17.8831,2.2086
						c36.0425-8.1281,50.9611-11.4923,106.9423-44.075c2.9865-0.3921,5.9591-0.7906,8.9172-1.196
						c33.8317-4.6351,63.1194-9.7761,87.4846-15.1932C1102.2437,1619.436,1080.0422,1629.7898,1030.7609,1641.7859"/>
					<path fill="#C7B299" d="M1030.7609,1641.7859c63.0182-18.1841,64.2222-18.5315,125.1206-47.3645
						c-8.6906,9.4824-13.0527,14.2421-37.535,23.2225C1081.7911,1629.3517,1071.9884,1632.2018,1030.7609,1641.7859"/>
					<path fill="#1A1A1A" d="M1256.4889,1555.4196c-60.7938,32.3716-60.7938,32.3716-122.5228,56.7531l-15.6196,5.4713
						c16.7871-6.9066,30.0466-12.3619,37.535-23.2225c45.533-19.9207,88.5406-38.7366,150.7111-77.0817
						c-13.9612,15.0007-15.7549,16.9281-35.151,29.3292L1256.4889,1555.4196"/>
					<path fill="#0000FF" d="M1271.4415,1546.6689c21.8534-14.7821,24.1378-16.3273,35.151-29.3292
						c19.882-8.1066,20.2618-8.2614,32.5104-16.0953C1319.0221,1515.1903,1292.205,1533.7612,1271.4415,1546.6689"/>
					<path fill="#3FA9F5" d="M356.7724,1481.7993l-12.7965-10.5881c-59.229-53.99-60.3606-55.0215-89.1298-88.0942
						c-16.4243-20.5155-38.3318-47.8978-53.6101-69.2804c-14.6062-26.0631-15.4806-27.6234-17.8768-52.0126
						c47.6497,71.0568,65.4789,97.6442,140.2222,172.207C330.2521,1452.9453,333.6004,1462.4391,356.7724,1481.7993"/>
					<path fill="#534741" d="M149.3686,1150.911l-0.0226-0.0328c-29.2592-12.15-37.2788-15.9757-46.1564-31.6637
						c-6.2657-21.0596-15.1612-49.0009-20.4502-70.3267C68.6357,975.7927,67.7914,971.417,65.9742,913.325
						c9.9661,13.4019,36.2283,25.9131,79.9222,36.8448C138.3765,1028.448,135.2639,1060.8484,149.3686,1150.911"/>
					<path fill="#FF1D25" d="M82.7394,1048.8878l-0.0689-0.2855c-15.8841-79.8965-17.5445-88.2484-21.2769-147.0144
						c-0.9905-87.4952-0.9905-87.4952,3.9207-131.6116l5.3519-38.9454l9.3624-46.1008
						c-14.6344,84.0857-20.6917,118.8899-14.0544,228.395C69.9962,984.1619,70.513,993.2632,82.7394,1048.8878"/>
					<path fill="#C7B299" d="M201.2361,1313.8365l-20.6999-31.5791c-40.4062-70.9375-41.1782-72.2927-57.9444-112.0377
						l-10.2923-25.7373c20.7345,46.442,30.1978,67.6383,71.0598,117.3416C187.1356,1289.509,187.283,1290.5897,201.2361,1313.8365"
						/>
					<path fill="#8CC63F" d="M295.222,1105.2911c-6.9378,95.7338-5.2793,119.0786,5.4995,185.8055
						c-54.2827-41.3086-101.1629-76.9838-151.3528-140.1857c-10.12-71.8376-14.3088-101.5721-3.4722-200.7412
						c35.5665,46.7119,66.2828,87.0537,149.3512,155.1241C295.2391,1105.293,295.2305,1105.2921,295.222,1105.2911"/>
					<path fill="#22B573" d="M183.3593,1261.824c-34.0279-43.9424-49.5584-63.9979-71.0597-117.3416l-9.1099-25.2679
						c8.4623,13.7354,12.0824,17.8962,46.1564,31.6637l0.0226,0.0328c38.9476,45.655,67.0879,78.6416,151.3528,140.1857
						c-18.1245-2.7101-34.9497-5.6967-50.319-8.9614C221.3299,1275.9597,199.0782,1269.131,183.3593,1261.824"/>
					<path fill="#808080" d="M413.5282,1190.756c10.7715-76.6833,15.4762-105.7352,42.6727-206.2407
						c-58.3968,41.4133-108.83,77.179-160.9533,120.7786c-0.0086-0.001-0.0171-0.0018-0.0257-0.0028
						c-6.9378,95.7338-5.2793,119.0786,5.4995,185.8055c23.4545-25.3973,45.6082-49.386,106.3632-95.4547
						C409.0177,1194.1761,412.3002,1192.8481,413.5282,1190.756"/>
					<path fill="#B3B3B3" d="M613.5292,1466.2654c-62.7103-1.556-120.4434-5.0227-170.0014-10.4307
						c19.1138-22.5504,34.211-40.3622,91.158-82.8536c68.1685,2.5684,142.6112,2.985,219.7382,1.2845
						c-47.7107,29.5197-97.0458,60.0443-135.955,88.3999C616.9871,1463.7455,615.2797,1465.7191,613.5292,1466.2654"/>
					<path fill="#FF1D25" d="M443.5279,1455.8347c-57.4897-57.2681-81.2855-80.972-142.8064-164.738
						c26.4771-28.6703,45.6072-49.385,112.8068-100.3407c41.6821,70.7502,58.9348,100.0347,121.1576,182.2251
						c-36.015,27.7102-67.1187,51.6415-91.158,82.8538"/>
					<path fill="#93278F" d="M798.1833,1627.943c-37.6989,0.1952-73.494-0.6775-105.5833-2.6355
						c-31.2853-25.3674-42.9915-34.8593-63.7538-83.955c51.6348,1.9454,108.0221,2.261,166.4426,0.973
						C790.5955,1581.6412,788.653,1597.9146,798.1833,1627.943"/>
					<path fill="#ED1C24" d="M869.8582,1626.3607c-28.5496-30.5533-39.6035-42.7988-74.5694-84.0352
						c47.5386-27.5825,51.325-29.6791,148.3224-83.3893c24.9814,57.4508,31.2903,73.4872,41.351,112.8252
						C880.5426,1621.1238,880.5426,1621.1238,869.8582,1626.3607"/>
					<path fill="#BDCCD4" d="M874.7135,1659.9502c-23.3231-4.2606-32.9767-6.0242-76.5302-32.0072
						c-6.8404-24.7333-9.6717-34.9708-2.8945-85.6174c28.7923,33.7783,43.2443,50.733,74.5694,84.0352
						C864.5248,1652.9253,865.9106,1656.2289,874.7135,1659.9502"/>
					<path fill="#4D4D4D" d="M628.8462,1541.3525c-53.7941-22.3549-109.4197-45.4708-185.3183-85.5177
						c49.5579,5.4078,107.2911,8.8745,170.0013,10.4305c56.6514,25.0668,94.0774,41.6268,181.7595,76.0602
						C736.8683,1543.6135,680.481,1543.298,628.8462,1541.3525"/>
					<path fill="#666666" d="M795.2888,1542.3256c-50.5613-20.0475-107.8688-42.7697-181.7595-76.0602
						c36.7256-25.9856,58.8931-41.6703,140.8948-91.9998c73.5997,33.7213,80.1283,36.5991,189.1872,84.6707
						C874.1188,1497.3944,832.1735,1520.6075,795.2888,1542.3256"/>
					<path fill="#D4145A" d="M427.2185,1519.0358c-20.3616-5.7649-32.6518-9.2445-45.7206-17.9902l-24.7255-19.2462
						c-18.8755-17.7422-28.3499-26.6477-33.191-47.7683c9.7685,3.0322,21.1018,5.9329,34.0356,8.6803
						c24.5364,5.212,53.4723,9.5836,85.9108,13.1234C429.8285,1476.9833,417.9973,1495.2478,427.2185,1519.0358"/>
					<path fill="#1B1464" d="M323.5815,1434.031c-58.6059-59.7579-82.8636-84.4926-140.2222-172.207
						c15.7189,7.307,37.9706,14.1357,67.0431,20.3113c15.3693,3.2648,32.1946,6.2513,50.319,8.9613
						c50.8187,67.8969,69.8337,93.302,142.8064,164.7383c-32.4385-3.5399-61.3744-7.9115-85.9108-13.1235
						C344.6833,1439.9639,333.3499,1437.0632,323.5815,1434.031"/>
					<path fill="#BDCCD4" d="M692.6,1625.3075c-45.4545-13.4799-92.4565-27.4187-162.354-56.6293
						c-40.6516-37.39-55.8622-51.3802-86.7181-112.8434c54.2562,27.7706,97.111,49.7057,185.3183,85.5177
						C646.6304,1580.6224,653.2848,1595.316,692.6,1625.3075"/>
					<path fill="#754C24" d="M822.6611,1659.3883c-18.8998-1.0509-19.6375-1.0919-29.8135-1.9451
						c-24.5236-2.359-25.9916-2.5002-39.8495-4.3623l-8.3459-1.1725l-21.0897-3.4935
						c-17.3214-4.7858-32.2807-8.9189-30.9624-23.1074c54.7612,20.8569,77.4276,29.4899,136.8416,34.3673L822.6611,1659.3883"/>
					<path fill="#29ABE2" d="M873.744,1660.1421l0.9695-0.1919c-15.389,0.3392-30.2556,0.2665-43.9179-0.2251
						c4.8263,0.1394,11.2613,0.3328,16.0887,0.424c14.083,0.1365,14.083,0.1365,21.0563,0.0701L873.744,1660.1421"/>
					<path fill="#1B1464" d="M723.5624,1648.4149l-0.1286-0.0239c-41.8651-8.3578-85.1553-17.0001-148.9368-40.9109
						c-22.2724-10.3528-39.8644-18.53-44.0641-38.6561l-0.1869-0.1458c49.6391,19.9537,88.847,35.7145,162.354,56.6293
						C693.8375,1634.6637,694.8149,1642.0537,723.5624,1648.4149"/>
					<path fill="#736357" d="M574.4971,1607.4801c-61.6962-27.1984-87.233-38.4561-147.2786-88.4443
						c-20.3616-5.7649-32.6518-9.2445-45.7206-17.9902c19.3827,13.4073,45.1284,31.4648,65.1438,43.908
						c64.199,35.8457,68.0421,37.9916,115.6846,57.7808l10.3417,4.0714C573.2636,1607.0316,573.8732,1607.2563,574.4971,1607.4801"
						/>
					<path fill="#8CC63F" d="M530.246,1568.6782c-40.6516-37.39-55.8622-51.3802-86.7181-112.8434
						c-13.6994,21.1484-25.5306,39.413-16.3094,63.2009c48.5284,38.9922,68.6149,55.1315,147.2786,88.4443
						c-22.2724-10.3528-39.8644-18.53-44.0641-38.6561L530.246,1568.6782"/>
					<path fill="#ED1C24" d="M693.9786,1642.8408c-49.6011-11.9453-59.9232-14.4312-105.7224-30.2141l-13.7592-5.1466
						c43.5615,15.3521,81.1825,28.6106,148.9368,40.9109l0.1286,0.0239l21.0897,3.4935
						C729.4114,1649.4137,709.0655,1646.1407,693.9786,1642.8408"/>
					<path fill="#2E3192" d="M572.6681,1606.8057c0.5955,0.226,1.2051,0.4507,1.829,0.6744l13.7592,5.1466L572.6681,1606.8057"/>
				</g>
			</g>
		</g>
	</g>
</g>
</svg>
